<svg xmlns="http://www.w3.org/2000/svg" version="1.1" xmlns:xlink="http://www.w3.org/1999/xlink" xmlns:svgjs="http://svgjs.dev/svgjs" width="1000" height="804" viewBox="0 0 1000 804"><g transform="matrix(1,0,0,1,-0.593075539729,9.361550041830924e-7)"><svg viewBox="0 0 348 280" data-background-color="#000000" preserveAspectRatio="xMidYMid meet" height="804" width="1000" xmlns="http://www.w3.org/2000/svg" xmlns:xlink="http://www.w3.org/1999/xlink"><g id="tight-bounds" transform="matrix(1,0,0,1,0.20639032858372275,-3.2602412147753057e-7)"><svg viewBox="0 0 347.5872142073216 280" height="280" width="347.5872142073216"><g><svg viewBox="0 0 395.52 318.6124099891222" height="280" width="347.5872142073216"><g><svg viewBox="0 0 395.52 318.6124099891222" height="318.6124099891222" width="395.52"><g><svg viewBox="0 0 395.52 318.6124099891222" height="318.6124099891222" width="395.52"><g><svg viewBox="0 0 395.52 278.2696" height="278.2696" width="395.52"><g transform="matrix(1,0,0,1,132.17122628064396,73.54602628064397)"><svg viewBox="0 0 131.17754743871208 131.17754743871208" height="131.17754743871208" width="131.17754743871208"><g><svg xmlns="http://www.w3.org/2000/svg" xmlns:xlink="http://www.w3.org/1999/xlink" version="1.1" x="0" y="0" viewBox="0.5 0.5 70.99999237060547 70.99999237060547" enable-background="new 0 0 72 72" xml:space="preserve" height="131.17754743871208" width="131.17754743871208" class="icon-o-0" data-fill-palette-color="accent" id="o-0"><g fill="#ffffff" data-fill-palette-color="accent"><g fill="#ffffff" data-fill-palette-color="accent"><path d="M69.8 0.5H2.2c-0.9 0-1.7 0.8-1.7 1.7v67.6c0 0.9 0.8 1.7 1.7 1.7h67.6c0.9 0 1.7-0.8 1.7-1.7V2.2C71.5 1.3 70.7 0.5 69.8 0.5zM25 4.5c1.2 0 2.1 0.9 2.1 2.1 0 1.2-0.9 2.1-2.1 2.1-1.2 0-2.1-0.9-2.1-2.1C22.9 5.4 23.8 4.5 25 4.5zM16.1 4.5c1.2 0 2.1 0.9 2.1 2.1 0 1.2-0.9 2.1-2.1 2.1S14 7.8 14 6.6C14 5.4 15 4.5 16.1 4.5zM7.3 4.5c1.2 0 2.1 0.9 2.1 2.1 0 1.2-0.9 2.1-2.1 2.1S5.2 7.8 5.2 6.6C5.2 5.4 6.1 4.5 7.3 4.5zM66.5 64.8c0 0.9-0.8 1.7-1.7 1.7H7.2c-0.9 0-1.7-0.8-1.7-1.7V16.5c0-0.9 0.8-1.7 1.7-1.7h57.6c0.9 0 1.7 0.8 1.7 1.7V64.8z" fill="#ffffff" data-fill-palette-color="accent"></path></g><g fill="#ffffff" data-fill-palette-color="accent"><g fill="#ffffff" data-fill-palette-color="accent"><g fill="#ffffff" data-fill-palette-color="accent"><path d="M50.2 51.4c-0.7 0-1.4-0.3-1.9-0.9-0.9-1-0.7-2.6 0.2-3.5l5.9-5.9c0.5-0.5 0.5-1.4 0-1.9l-5.9-5.9c-0.9-0.9-1.1-2.4-0.3-3.4 1-1.2 2.7-1.2 3.7-0.2l8.8 8.8c0.5 0.5 0.7 1.1 0.7 1.8 0 0.7-0.3 1.3-0.7 1.8L52 50.7C51.5 51.1 50.8 51.4 50.2 51.4z" fill="#ffffff" data-fill-palette-color="accent"></path></g><g fill="#ffffff" data-fill-palette-color="accent"><path d="M21.8 51.4c-0.6 0-1.3-0.2-1.8-0.7l-8.8-8.8c-0.5-0.5-0.7-1.1-0.7-1.8 0-0.7 0.3-1.3 0.7-1.8l8.7-8.7c0.9-0.9 2.4-1.1 3.4-0.3 1.2 1 1.2 2.7 0.2 3.7l-6 6c-0.5 0.5-0.5 1.4 0 1.9l5.9 5.9c0.9 0.9 1.1 2.5 0.2 3.5C23.2 51.1 22.5 51.4 21.8 51.4z" fill="#ffffff" data-fill-palette-color="accent"></path></g></g><g fill="#ffffff" data-fill-palette-color="accent"><path d="M30.7 57.4c-0.3 0-0.6 0-0.8-0.1-1.3-0.5-2-1.9-1.5-3.2l10.5-29.5c0.5-1.3 1.9-2 3.2-1.5 1.3 0.5 2 1.9 1.5 3.2L33.1 55.7C32.7 56.7 31.8 57.4 30.7 57.4z" fill="#ffffff" data-fill-palette-color="accent"></path></g></g></g></svg></g></svg></g><path d="M84.188 89.794L85.146 87.167 88.014 88.214 84.634 97.473 81.766 96.427 82.813 93.559 78.773 93.627 76.052 101.081 79.098 103.736 80.244 100.598 83.111 101.644 79.784 110.759 76.916 109.712 77.85 107.153 66.858 96.86 66.002 99.207 63.163 98.17 67.16 87.221 69.999 88.258 69.132 90.633ZM73.843 99.158L75.845 93.674 67.965 93.829 67.916 93.964ZM89.168 71.071L90.978 67.915 97.603 71.714 88.134 88.227 85.485 86.708 87.219 83.685 75.226 76.808 73.493 79.831 70.845 78.312 76.224 68.932 78.872 70.451 77.134 73.482 89.126 80.36 93.145 73.351ZM89.248 50.742C90.55 49.179 92.048 47.947 93.742 47.049 95.432 46.155 97.199 45.763 99.043 45.872 100.892 45.986 102.665 46.748 104.36 48.16V48.16C106.045 49.564 107.113 51.167 107.564 52.97 108.016 54.772 107.955 56.585 107.382 58.409 106.804 60.237 105.864 61.933 104.562 63.497V63.497L98.26 71.063 95.914 69.109 98.144 66.432 87.522 57.585 85.292 60.262 82.946 58.309ZM101.959 61.851C103.398 60.124 104.214 58.33 104.41 56.468 104.604 54.597 103.732 52.854 101.795 51.24V51.24C99.862 49.631 97.993 49.091 96.188 49.621 94.392 50.149 92.775 51.277 91.337 53.004V53.004L89.995 54.615 100.617 63.463ZM121.606 25.277L118.893 27.463 127.567 38.227 130.28 36.041 132.195 38.418 123.759 45.215 121.844 42.838 124.557 40.652 121.004 36.242 113.017 42.678 116.57 47.088 119.283 44.902 121.198 47.279 112.763 54.076 110.847 51.699 113.561 49.513 104.887 38.748 102.174 40.934 100.258 38.557 108.694 31.76 110.609 34.137 107.896 36.323 111.211 40.437 119.198 34.001 115.884 29.887 113.17 32.074 111.255 29.697 119.691 22.9ZM149.577 26.277L152.066 25.004 153.456 27.722 144.68 32.21 143.29 29.492 146.008 28.102 143 25.404 135.936 29.017 136.363 33.035 139.337 31.514 140.727 34.232 132.089 38.65 130.699 35.932 133.124 34.692 132.068 19.67 129.844 20.807 128.468 18.117 138.845 12.81 140.221 15.5 137.97 16.651ZM135.624 26.105L140.822 23.447 134.941 18.2 134.813 18.266ZM158.471 8.213L155.15 9.364 159.676 22.426 162.998 21.275 163.997 24.159 153.732 27.716 152.732 24.832 156.025 23.691 151.498 10.629 148.206 11.77 147.206 8.886 157.471 5.328ZM184.823 15.988L187.055 18.107C186.64 18.82 186.134 19.429 185.539 19.932 184.945 20.442 184.163 20.789 183.194 20.972V20.972C181.443 21.304 179.866 20.964 178.461 19.954 177.058 18.951 175.787 17.214 174.65 14.744V14.744L174.195 13.889 170.681 14.555 171.648 19.665 174.991 19.032 175.553 22.001 164.99 24.001 164.422 21.002 167.846 20.353 165.274 6.77 161.85 7.419 161.282 4.419 172.815 2.235C175.117 1.799 177.045 1.961 178.597 2.72 180.15 3.479 181.096 4.754 181.435 6.545V6.545C181.715 8.026 181.515 9.326 180.834 10.446 180.146 11.559 179.034 12.429 177.5 13.054V13.054L177.981 13.884C178.788 15.349 179.584 16.345 180.367 16.873 181.145 17.409 181.945 17.6 182.766 17.444V17.444C183.621 17.282 184.307 16.797 184.823 15.988ZM169.071 6.051L170.151 11.757 174.574 10.92C175.584 10.728 176.405 10.311 177.037 9.669 177.661 9.027 177.882 8.222 177.698 7.252V7.252C177.529 6.357 177.047 5.744 176.252 5.413 175.463 5.081 174.544 5.015 173.494 5.214V5.214ZM208.786 0L208.811 3.053 205.645 3.078 197.797 20.399 195.824 20.414 187.72 3.222 184.524 3.247 184.499 0.195 194.582 0.114 194.606 3.166 191.729 3.189 196.995 15.173 201.955 3.107 198.697 3.134 198.673 0.081ZM230.732 10.463L227.407 9.911 228.039 6.099 218.64 4.539 217.723 10.065 221.505 10.693 221.914 8.229 224.753 8.7 223.482 16.355 220.643 15.884 221.052 13.42 217.27 12.793 216.377 18.177 225.776 19.737 226.409 15.924 229.735 16.476 228.602 23.3 208.739 20.004 209.238 16.992 212.645 17.558 214.908 3.92 211.501 3.354 212.001 0.343 231.865 3.639ZM251.347 27.287L252.165 30.255C251.441 30.651 250.694 30.911 249.925 31.035 249.153 31.166 248.304 31.059 247.379 30.716V30.716C245.709 30.097 244.532 28.992 243.85 27.402 243.166 25.818 242.974 23.675 243.274 20.973V20.973L243.326 20.005 239.972 18.762 238.164 23.638 241.354 24.821 240.304 27.655 230.223 23.917 231.284 21.055 234.551 22.266 239.357 9.304 236.09 8.093 237.152 5.23 248.157 9.311C250.355 10.126 251.922 11.259 252.86 12.71 253.799 14.161 253.951 15.741 253.317 17.45V17.45C252.793 18.864 251.951 19.874 250.79 20.482 249.625 21.08 248.225 21.252 246.588 20.995V20.995L246.572 21.954C246.507 23.626 246.675 24.89 247.073 25.747 247.463 26.607 248.05 27.183 248.834 27.474V27.474C249.649 27.776 250.487 27.714 251.347 27.287ZM242.981 10.647L240.962 16.093 245.183 17.658C246.147 18.015 247.065 18.081 247.938 17.857 248.804 17.63 249.408 17.054 249.751 16.128V16.128C250.068 15.274 249.971 14.5 249.461 13.806 248.957 13.115 248.204 12.584 247.202 12.213V12.213ZM269.465 39.274L271.868 40.703 270.307 43.327 261.836 38.287 263.396 35.664 266.02 37.224 266.703 33.242 259.883 29.185 256.709 31.686 259.58 33.394 258.02 36.017 249.681 31.056 251.241 28.433 253.582 29.825 265.736 20.934 263.59 19.657 265.135 17.06 275.152 23.019 273.607 25.616 271.434 24.324ZM262.182 27.371L267.2 30.356 268.51 22.584 268.386 22.511ZM272.874 45.863C272.271 45.401 271.887 44.843 271.722 44.19 271.552 43.533 271.655 42.96 272.03 42.471V42.471C272.43 41.949 272.974 41.679 273.661 41.661 274.338 41.645 274.978 41.869 275.582 42.331V42.331C276.224 42.823 276.619 43.394 276.769 44.044 276.914 44.699 276.786 45.288 276.386 45.81V45.81C275.998 46.316 275.478 46.573 274.824 46.581 274.166 46.594 273.516 46.355 272.874 45.863ZM292.751 55.061L293.138 58.259C291.352 58.632 289.607 58.607 287.903 58.183 286.209 57.76 284.636 56.849 283.185 55.452V55.452C281.773 54.092 280.794 52.531 280.247 50.767 279.701 49.004 279.633 47.231 280.046 45.45 280.458 43.669 281.337 42.079 282.682 40.683V40.683C284.08 39.232 285.651 38.243 287.395 37.716 289.139 37.189 290.856 37.13 292.546 37.539 294.24 37.943 295.713 38.749 296.967 39.957V39.957C298.768 41.692 299.649 43.696 299.61 45.969V45.969L301.057 44.467 303.552 46.869 298.896 51.704 296.933 50.127C297.416 48.766 297.541 47.435 297.308 46.136 297.081 44.842 296.401 43.65 295.271 42.562V42.562C294.477 41.796 293.522 41.286 292.408 41.031 291.293 40.775 290.136 40.846 288.937 41.241 287.738 41.637 286.629 42.363 285.612 43.419V43.419C284.671 44.396 284.03 45.482 283.689 46.675 283.343 47.864 283.314 49.035 283.602 50.188 283.895 51.336 284.483 52.335 285.367 53.186V53.186C286.452 54.232 287.591 54.882 288.783 55.136 289.98 55.384 291.303 55.36 292.751 55.061ZM296.36 71.097C295.175 69.468 294.472 67.733 294.252 65.894 294.026 64.058 294.278 62.307 295.006 60.642 295.735 58.976 296.891 57.566 298.476 56.413V56.413C300.055 55.264 301.752 54.598 303.567 54.413 305.387 54.224 307.139 54.525 308.825 55.315 310.512 56.096 311.942 57.293 313.115 58.905V58.905C314.28 60.506 314.973 62.227 315.193 64.067 315.418 65.902 315.161 67.657 314.422 69.331 313.688 71.001 312.531 72.41 310.952 73.559V73.559C309.384 74.7 307.693 75.363 305.878 75.548 304.058 75.737 302.309 75.441 300.632 74.662 298.949 73.886 297.525 72.698 296.36 71.097ZM298.903 69.246C299.657 70.282 300.578 71.019 301.667 71.455 302.766 71.893 303.92 72.007 305.131 71.795 306.347 71.58 307.495 71.079 308.575 70.293V70.293C309.667 69.499 310.502 68.556 311.081 67.465 311.655 66.378 311.906 65.251 311.835 64.082 311.759 62.917 311.338 61.808 310.572 60.756V60.756C309.786 59.675 308.843 58.921 307.743 58.492 306.639 58.058 305.484 57.945 304.279 58.152 303.074 58.36 301.926 58.861 300.835 59.655V59.655C299.721 60.465 298.886 61.408 298.329 62.482 297.766 63.561 297.524 64.69 297.603 65.87 297.684 67.04 298.117 68.166 298.903 69.246ZM330.597 101.095L329.206 97.901 316.53 103.419 317.921 106.614 315.122 107.832 310.925 98.191 313.724 96.973 315.021 99.951 321.467 97.145C322.585 96.658 324.099 96.178 326.008 95.706V95.706L309.369 94.901 308.549 93.016 319.156 80.405C317.488 81.43 316.148 82.163 315.136 82.603V82.603L308.69 85.41 309.987 88.388 307.188 89.606 303.073 80.154 305.871 78.935 307.262 82.13 319.938 76.612 318.547 73.417 321.346 72.199 324.419 79.257 313.781 92.005 330.298 92.762 333.395 99.877ZM77.04 197.01L77.999 199.636 75.131 200.683 71.751 191.423 74.619 190.377 75.666 193.244 78.712 190.589 75.991 183.136 71.951 183.068 73.096 186.206 70.229 187.252 66.902 178.138 69.769 177.091 70.703 179.65 85.741 180.441 84.885 178.095 87.723 177.058 91.72 188.007 88.882 189.044 88.015 186.668ZM78.919 183.183L80.921 188.667 86.848 183.472 86.799 183.337ZM90.521 212.347L92.331 215.504 85.706 219.303 76.237 202.79 78.885 201.271 80.618 204.294 92.611 197.417 90.877 194.394 93.526 192.876 98.905 202.256 96.256 203.774 94.518 200.743 82.526 207.62 86.544 214.628ZM109.338 216.719C110.64 218.283 111.58 219.979 112.158 221.808 112.731 223.631 112.797 225.44 112.356 227.234 111.91 229.032 110.839 230.637 109.144 232.049V232.049C107.459 233.453 105.689 234.213 103.835 234.331 101.98 234.449 100.208 234.061 98.518 233.168 96.824 232.269 95.326 231.038 94.024 229.474V229.474L87.722 221.908 90.068 219.954 92.298 222.631 102.92 213.784 100.69 211.107 103.036 209.153ZM96.113 227.212C97.551 228.939 99.168 230.067 100.964 230.596 102.77 231.125 104.641 230.583 106.579 228.969V228.969C108.511 227.36 109.38 225.619 109.186 223.748 108.991 221.886 108.174 220.092 106.735 218.365V218.365L105.394 216.754 94.771 225.601ZM134.18 243.313L131.466 241.127 122.793 251.891 125.506 254.078 123.591 256.455 115.155 249.658 117.07 247.28 119.783 249.467 123.337 245.057 115.349 238.621 111.796 243.031 114.509 245.217 112.594 247.594 104.158 240.797 106.074 238.42 108.787 240.606 117.46 229.841 114.747 227.655 116.663 225.278 125.098 232.075 123.183 234.452 120.47 232.266 117.155 236.38 125.142 242.816 128.457 238.702 125.744 236.516 127.659 234.139 136.095 240.936ZM146.113 264.691L148.602 265.964 147.212 268.682 138.436 264.194 139.826 261.476 142.544 262.866 142.971 258.848 135.907 255.235 132.899 257.933 135.873 259.454 134.483 262.172 125.844 257.754 127.234 255.036 129.659 256.277 141.22 246.627 138.997 245.49 140.373 242.8 150.75 248.107 149.374 250.797 147.123 249.646ZM138.085 253.278L143.283 255.936 144.094 248.097 143.966 248.031ZM165.033 257.046L161.711 255.895 157.185 268.958 160.506 270.109 159.507 272.993 149.241 269.436 150.241 266.551 153.533 267.692 158.06 254.63 154.768 253.489 155.767 250.605 166.032 254.162ZM183.829 273.461L185.131 276.249C184.483 276.761 183.79 277.143 183.052 277.393 182.313 277.651 181.459 277.688 180.489 277.504V277.504C178.739 277.173 177.395 276.28 176.456 274.826 175.517 273.379 174.97 271.298 174.814 268.584V268.584L174.703 267.621 171.189 266.956 170.221 272.066 173.564 272.699 173.002 275.668 162.438 273.668 163.006 270.668 166.43 271.317 169.002 257.734 165.578 257.086 166.146 254.086 177.679 256.27C179.982 256.706 181.717 257.561 182.884 258.835 184.052 260.109 184.466 261.642 184.127 263.433V263.433C183.846 264.914 183.185 266.051 182.142 266.844 181.094 267.629 179.741 268.031 178.084 268.052V268.052L178.229 269C178.445 270.659 178.821 271.878 179.357 272.656 179.885 273.439 180.56 273.909 181.381 274.064V274.064C182.236 274.226 183.052 274.025 183.829 273.461ZM172.799 258.453L171.719 264.159 176.142 264.996C177.152 265.187 178.068 265.099 178.891 264.732 179.707 264.364 180.207 263.695 180.39 262.725V262.725C180.56 261.83 180.335 261.083 179.716 260.484 179.104 259.887 178.273 259.489 177.222 259.29V259.29ZM208.996 258.05L208.971 261.102 205.806 261.077 197.681 278.27 195.708 278.254 187.881 260.933 184.684 260.908 184.709 257.855 194.792 257.936 194.767 260.988 191.889 260.965 196.963 273.032 202.116 261.047 198.858 261.021 198.882 257.969ZM228.717 261.586L225.391 262.138 224.759 258.326 215.359 259.886 216.276 265.412 220.058 264.784 219.649 262.32 222.489 261.849 223.759 269.504 220.92 269.976 220.511 267.512 216.729 268.139 217.622 273.523 227.022 271.964 226.389 268.151 229.715 267.599 230.847 274.423 210.984 277.719 210.484 274.708 213.891 274.143 211.628 260.505 208.221 261.07 207.721 258.059 227.585 254.762ZM253.206 261.921L255.761 263.637C255.47 264.41 255.073 265.094 254.571 265.69 254.07 266.292 253.358 266.764 252.432 267.107V267.107C250.762 267.727 249.15 267.656 247.596 266.895 246.045 266.14 244.502 264.64 242.968 262.395V262.395L242.377 261.628 239.023 262.871 240.831 267.748 244.021 266.565 245.071 269.398 234.991 273.136 233.929 270.274 237.197 269.062 232.391 256.1 229.124 257.311 228.062 254.449 239.068 250.369C241.265 249.554 243.193 249.391 244.85 249.88 246.508 250.369 247.653 251.468 248.287 253.177V253.177C248.811 254.59 248.831 255.906 248.347 257.123 247.854 258.336 246.903 259.379 245.495 260.252V260.252L246.108 260.99C247.149 262.299 248.1 263.149 248.961 263.538 249.817 263.937 250.638 263.991 251.421 263.7V263.7C252.237 263.398 252.832 262.805 253.206 261.921ZM236.014 254.757L238.033 260.202 242.254 258.637C243.218 258.279 243.957 257.731 244.473 256.992 244.981 256.255 245.064 255.424 244.721 254.499V254.499C244.404 253.645 243.827 253.121 242.988 252.928 242.155 252.732 241.238 252.82 240.235 253.192V253.192ZM273.355 251.459L275.758 250.03 277.318 252.654 268.847 257.693 267.286 255.07 269.91 253.509 266.736 251.008 259.916 255.065 260.599 259.048 263.47 257.34 265.031 259.963 256.692 264.924 255.131 262.3 257.472 260.908 255.459 245.984 253.313 247.261 251.768 244.664 261.785 238.705 263.33 241.302 261.157 242.595ZM259.42 252.179L264.437 249.194 258.233 244.334 258.109 244.407ZM281.68 249.818C281.077 250.281 280.438 250.507 279.765 250.496 279.087 250.49 278.56 250.242 278.185 249.752V249.752C277.785 249.23 277.665 248.635 277.827 247.968 277.987 247.309 278.369 246.749 278.973 246.286V246.286C279.615 245.794 280.269 245.561 280.935 245.585 281.605 245.615 282.141 245.891 282.541 246.413V246.413C282.929 246.919 283.042 247.488 282.88 248.122 282.722 248.761 282.322 249.326 281.68 249.818ZM293.195 229.594L296.406 229.327C296.711 231.126 296.62 232.869 296.133 234.556 295.646 236.233 294.677 237.771 293.226 239.168V239.168C291.814 240.528 290.217 241.447 288.435 241.928 286.652 242.408 284.878 242.408 283.114 241.929 281.349 241.451 279.794 240.513 278.449 239.116V239.116C277.051 237.665 276.122 236.058 275.661 234.295 275.2 232.532 275.205 230.814 275.678 229.142 276.145 227.464 277.006 226.021 278.259 224.814V224.814C280.061 223.079 282.097 222.274 284.367 222.399V222.399L282.92 220.896 285.415 218.493 290.071 223.328 288.421 225.23C287.079 224.696 285.755 224.521 284.448 224.705 283.145 224.884 281.929 225.518 280.799 226.606V226.606C280.004 227.372 279.459 228.306 279.162 229.41 278.865 230.515 278.891 231.673 279.242 232.887 279.592 234.1 280.276 235.235 281.293 236.291V236.291C282.234 237.268 283.295 237.949 284.475 238.335 285.65 238.725 286.819 238.798 287.982 238.554 289.14 238.304 290.161 237.754 291.044 236.903V236.903C292.13 235.857 292.822 234.743 293.12 233.562 293.414 232.375 293.439 231.053 293.195 229.594ZM308.064 221.614C306.879 223.243 305.445 224.445 303.762 225.22 302.085 226 300.341 226.299 298.532 226.118 296.723 225.938 295.026 225.271 293.442 224.118V224.118C291.863 222.969 290.706 221.559 289.972 219.889 289.232 218.216 288.979 216.455 289.213 214.609 289.437 212.763 290.136 211.034 291.309 209.422V209.422C292.474 207.821 293.898 206.633 295.581 205.857 297.258 205.078 299.007 204.782 300.827 204.971 302.642 205.156 304.339 205.823 305.918 206.972V206.972C307.486 208.113 308.637 209.518 309.371 211.188 310.111 212.862 310.368 214.617 310.142 216.452 309.922 218.292 309.229 220.013 308.064 221.614ZM305.521 219.763C306.275 218.727 306.692 217.624 306.772 216.454 306.851 215.274 306.604 214.141 306.03 213.054 305.451 211.963 304.621 211.024 303.541 210.238V210.238C302.45 209.444 301.296 208.939 300.08 208.724 298.869 208.512 297.719 208.62 296.628 209.047 295.544 209.478 294.618 210.22 293.852 211.273V211.273C293.066 212.353 292.638 213.482 292.569 214.661 292.496 215.845 292.743 216.978 293.311 218.061 293.879 219.144 294.709 220.082 295.8 220.876V220.876C296.914 221.687 298.068 222.191 299.262 222.391 300.461 222.594 301.61 222.477 302.708 222.039 303.797 221.602 304.735 220.844 305.521 219.763ZM312.222 175.099L310.831 178.294 323.507 183.812 324.897 180.618 327.696 181.836 323.499 191.477 320.7 190.258 321.997 187.28 315.551 184.474C314.433 183.987 313.05 183.206 311.403 182.13V182.13L322.151 194.858 321.33 196.743 304.872 197.571C306.759 198.093 308.209 198.575 309.22 199.015V199.015L315.666 201.822 316.963 198.844 319.762 200.062 315.647 209.514 312.848 208.296 314.239 205.101 301.563 199.583 300.172 202.778 297.374 201.559 300.446 194.501 317.025 193.602 306.326 180.996 309.423 173.881ZM61.282 142.097C61.282 137.806 64.76 134.328 69.051 134.328 73.342 134.328 76.82 137.806 76.82 142.097 76.82 146.388 73.342 149.866 69.051 149.866 64.76 149.866 61.282 146.388 61.282 142.097ZM318.7 142.097C318.7 137.806 322.178 134.328 326.469 134.328 330.76 134.328 334.238 137.806 334.238 142.097 334.238 146.388 330.76 149.866 326.469 149.866 322.178 149.866 318.7 146.388 318.7 142.097Z" fill="#ffffff" data-fill-palette-color="primary"></path></svg></g><g transform="matrix(1,0,0,1,0,295.46666128000004)"><svg viewBox="0 0 395.52 23.145748709122202" height="23.145748709122202" width="395.52"><g transform="matrix(1,0,0,1,0,0)"><svg width="395.52" viewBox="4.150000095367432 -37 813.2999877929688 47.599998474121094" height="23.145748709122202" data-palette-color="#fefefe"><path d="M8.15 0L4.15 0 4.15-34.9 17-34.9Q25.65-34.9 25.65-24.95L25.65-24.95Q25.65-15 17-15L17-15 8.15-15 8.15 0ZM8.15-31.4L8.15-18.5 16.9-18.5Q21.35-18.5 21.35-23.3L21.35-23.3 21.35-26.6Q21.35-31.4 16.9-31.4L16.9-31.4 8.15-31.4ZM34.5 0L30.7 0 30.7-25.8 34.5-25.8 34.5-21 35-21Q35.65-23.25 37.22-24.53 38.8-25.8 41.35-25.8L41.35-25.8 42.75-25.8 42.75-21.95 40.25-21.95Q37.55-21.95 36.02-20.75 34.5-19.55 34.5-17.15L34.5-17.15 34.5 0ZM56 0.6L56 0.6Q53.75 0.6 51.8-0.15 49.85-0.9 48.45-2.55 47.05-4.2 46.25-6.75 45.45-9.3 45.45-12.9L45.45-12.9Q45.45-16.5 46.25-19.05 47.05-21.6 48.45-23.25 49.85-24.9 51.8-25.65 53.75-26.4 56-26.4L56-26.4Q58.25-26.4 60.2-25.65 62.15-24.9 63.55-23.25 64.95-21.6 65.75-19.05 66.55-16.5 66.55-12.9L66.55-12.9Q66.55-9.3 65.75-6.75 64.95-4.2 63.55-2.55 62.15-0.9 60.2-0.15 58.25 0.6 56 0.6ZM56-2.8L56-2.8Q59.1-2.8 60.77-4.65 62.45-6.5 62.45-10.3L62.45-10.3 62.45-15.5Q62.45-19.3 60.77-21.15 59.1-23 56-23L56-23Q52.9-23 51.22-21.15 49.55-19.3 49.55-15.5L49.55-15.5 49.55-10.3Q49.55-6.5 51.22-4.65 52.9-2.8 56-2.8ZM92.09 2.9L92.09 2.9Q92.09 7 89.32 8.8 86.54 10.6 80.74 10.6L80.74 10.6Q75.19 10.6 72.82 8.95 70.44 7.3 70.44 4.2L70.44 4.2Q70.44 2.1 71.49 0.9 72.54-0.3 74.19-0.6L74.19-0.6 74.19-1.3Q73.19-1.85 72.62-2.73 72.04-3.6 72.04-4.8L72.04-4.8Q72.04-6.4 72.97-7.55 73.89-8.7 75.99-8.95L75.99-8.95 75.99-9.5Q73.99-10.5 72.87-12.48 71.74-14.45 71.74-17.45L71.74-17.45Q71.74-21.85 74.14-24.1 76.54-26.35 80.59-26.35L80.59-26.35Q82.99-26.35 84.94-25.5L84.94-25.5 84.94-26.4Q84.94-27.85 85.59-28.5 86.24-29.15 87.69-29.15L87.69-29.15 91.14-29.15 91.14-25.8 86.69-25.8 86.69-24.4Q87.99-23.25 88.72-21.55 89.44-19.85 89.44-17.45L89.44-17.45Q89.44-13.05 87.04-10.8 84.64-8.55 80.59-8.55L80.59-8.55Q79.39-8.55 78.14-8.8L78.14-8.8Q76.74-8.55 76.02-7.68 75.29-6.8 75.29-5.9L75.29-5.9Q75.29-4.9 75.99-4.4 76.69-3.9 78.29-3.9L78.29-3.9 83.94-3.9Q88.29-3.9 90.19-2.15 92.09-0.4 92.09 2.9ZM88.54 3.15L88.54 3.15Q88.54 1.45 87.49 0.58 86.44-0.3 83.89-0.3L83.89-0.3 76.04-0.3Q74.89 0.25 74.42 1.1 73.94 1.95 73.94 3.25L73.94 3.25Q73.94 5.2 75.14 6.33 76.34 7.45 78.99 7.45L78.99 7.45 82.29 7.45Q85.39 7.45 86.97 6.43 88.54 5.4 88.54 3.15ZM80.59-11.65L80.59-11.65Q82.94-11.65 84.24-12.85 85.54-14.05 85.54-16.55L85.54-16.55 85.54-18.4Q85.54-20.9 84.24-22.1 82.94-23.3 80.59-23.3L80.59-23.3Q78.24-23.3 76.94-22.1 75.64-20.9 75.64-18.4L75.64-18.4 75.64-16.55Q75.64-14.05 76.94-12.85 78.24-11.65 80.59-11.65ZM100.04 0L96.24 0 96.24-25.8 100.04-25.8 100.04-21 100.54-21Q101.19-23.25 102.77-24.53 104.34-25.8 106.89-25.8L106.89-25.8 108.29-25.8 108.29-21.95 105.79-21.95Q103.09-21.95 101.56-20.75 100.04-19.55 100.04-17.15L100.04-17.15 100.04 0ZM131.49 0L128.79 0Q125.09 0 125.09-3.7L125.09-3.7 125.09-4.2 124.59-4.2Q123.94-1.85 122.21-0.63 120.49 0.6 118.09 0.6L118.09 0.6Q114.34 0.6 112.49-1.3 110.64-3.2 110.64-6.9L110.64-6.9Q110.64-10.5 113.01-12.6 115.39-14.7 120.44-14.7L120.44-14.7 125.09-14.7 125.09-17.55Q125.09-20.4 123.81-21.75 122.54-23.1 119.79-23.1L119.79-23.1Q117.54-23.1 116.16-22.13 114.79-21.15 113.79-19.3L113.79-19.3 111.54-21.4Q112.54-23.5 114.74-24.93 116.94-26.35 119.94-26.35L119.94-26.35Q124.34-26.35 126.61-24.23 128.89-22.1 128.89-17.95L128.89-17.95 128.89-3.35 131.49-3.35 131.49 0ZM119.04-2.7L119.04-2.7Q120.34-2.7 121.46-3.15 122.59-3.6 123.39-4.33 124.19-5.05 124.64-5.98 125.09-6.9 125.09-7.9L125.09-7.9 125.09-11.8 120.34-11.8Q117.34-11.8 115.96-10.8 114.59-9.8 114.59-7.9L114.59-7.9 114.59-6.5Q114.59-4.55 115.79-3.63 116.99-2.7 119.04-2.7ZM140.44 0L136.64 0 136.64-25.8 140.44-25.8 140.44-21.6 140.94-21.6Q141.69-24 143.14-25.2 144.59-26.4 147.24-26.4L147.24-26.4Q149.64-26.4 151.31-25.23 152.99-24.05 153.84-21.6L153.84-21.6 154.34-21.6Q155.14-24 156.84-25.2 158.54-26.4 161.34-26.4L161.34-26.4Q164.64-26.4 166.64-24.05 168.64-21.7 168.64-16.8L168.64-16.8 168.64 0 164.84 0 164.84-16.55Q164.84-19.65 163.61-21.3 162.39-22.95 159.84-22.95L159.84-22.95Q157.59-22.95 156.06-21.55 154.54-20.15 154.54-17.6L154.54-17.6 154.54 0 150.74 0 150.74-16.55Q150.74-19.65 149.51-21.3 148.28-22.95 145.74-22.95L145.74-22.95Q143.49-22.95 141.96-21.55 140.44-20.15 140.44-17.6L140.44-17.6 140.44 0ZM179.78 0L175.98 0 175.98-25.8 179.78-25.8 179.78-21.6 180.28-21.6Q181.03-24 182.48-25.2 183.93-26.4 186.58-26.4L186.58-26.4Q188.98-26.4 190.66-25.23 192.33-24.05 193.18-21.6L193.18-21.6 193.68-21.6Q194.48-24 196.18-25.2 197.88-26.4 200.68-26.4L200.68-26.4Q203.98-26.4 205.98-24.05 207.98-21.7 207.98-16.8L207.98-16.8 207.98 0 204.18 0 204.18-16.55Q204.18-19.65 202.96-21.3 201.73-22.95 199.18-22.95L199.18-22.95Q196.93-22.95 195.41-21.55 193.88-20.15 193.88-17.6L193.88-17.6 193.88 0 190.08 0 190.08-16.55Q190.08-19.65 188.86-21.3 187.63-22.95 185.08-22.95L185.08-22.95Q182.83-22.95 181.31-21.55 179.78-20.15 179.78-17.6L179.78-17.6 179.78 0ZM217.23-32.05L217.23-32.05Q214.88-32.05 214.88-34.1L214.88-34.1 214.88-34.9Q214.88-36.95 217.23-36.95L217.23-36.95Q219.58-36.95 219.58-34.9L219.58-34.9 219.58-34.1Q219.58-32.05 217.23-32.05ZM215.33 0L215.33-25.8 219.13-25.8 219.13 0 215.33 0ZM230.53 0L226.73 0 226.73-25.8 230.53-25.8 230.53-21.6 231.03-21.6Q231.78-24 233.35-25.2 234.93-26.4 237.63-26.4L237.63-26.4Q241.08-26.4 243.05-24.05 245.03-21.7 245.03-16.8L245.03-16.8 245.03 0 241.23 0 241.23-16.55Q241.23-19.65 239.95-21.3 238.68-22.95 236.03-22.95L236.03-22.95Q233.73-22.95 232.13-21.55 230.53-20.15 230.53-17.6L230.53-17.6 230.53 0ZM272.08 2.9L272.08 2.9Q272.08 7 269.3 8.8 266.53 10.6 260.73 10.6L260.73 10.6Q255.18 10.6 252.8 8.95 250.43 7.3 250.43 4.2L250.43 4.2Q250.43 2.1 251.48 0.9 252.53-0.3 254.18-0.6L254.18-0.6 254.18-1.3Q253.18-1.85 252.6-2.73 252.03-3.6 252.03-4.8L252.03-4.8Q252.03-6.4 252.95-7.55 253.88-8.7 255.98-8.95L255.98-8.95 255.98-9.5Q253.98-10.5 252.85-12.48 251.73-14.45 251.73-17.45L251.73-17.45Q251.73-21.85 254.13-24.1 256.53-26.35 260.58-26.35L260.58-26.35Q262.98-26.35 264.93-25.5L264.93-25.5 264.93-26.4Q264.93-27.85 265.58-28.5 266.23-29.15 267.68-29.15L267.68-29.15 271.13-29.15 271.13-25.8 266.68-25.8 266.68-24.4Q267.98-23.25 268.7-21.55 269.43-19.85 269.43-17.45L269.43-17.45Q269.43-13.05 267.03-10.8 264.63-8.55 260.58-8.55L260.58-8.55Q259.38-8.55 258.13-8.8L258.13-8.8Q256.73-8.55 256-7.68 255.28-6.8 255.28-5.9L255.28-5.9Q255.28-4.9 255.98-4.4 256.68-3.9 258.28-3.9L258.28-3.9 263.93-3.9Q268.28-3.9 270.18-2.15 272.08-0.4 272.08 2.9ZM268.53 3.15L268.53 3.15Q268.53 1.45 267.48 0.58 266.43-0.3 263.88-0.3L263.88-0.3 256.03-0.3Q254.88 0.25 254.4 1.1 253.93 1.95 253.93 3.25L253.93 3.25Q253.93 5.2 255.13 6.33 256.33 7.45 258.98 7.45L258.98 7.45 262.28 7.45Q265.38 7.45 266.95 6.43 268.53 5.4 268.53 3.15ZM260.58-11.65L260.58-11.65Q262.93-11.65 264.23-12.85 265.53-14.05 265.53-16.55L265.53-16.55 265.53-18.4Q265.53-20.9 264.23-22.1 262.93-23.3 260.58-23.3L260.58-23.3Q258.23-23.3 256.93-22.1 255.63-20.9 255.63-18.4L255.63-18.4 255.63-16.55Q255.63-14.05 256.93-12.85 258.23-11.65 260.58-11.65ZM306.52 2.9L306.52 2.9Q306.52 7 303.75 8.8 300.97 10.6 295.17 10.6L295.17 10.6Q289.62 10.6 287.25 8.95 284.87 7.3 284.87 4.2L284.87 4.2Q284.87 2.1 285.92 0.9 286.97-0.3 288.62-0.6L288.62-0.6 288.62-1.3Q287.62-1.85 287.05-2.73 286.47-3.6 286.47-4.8L286.47-4.8Q286.47-6.4 287.4-7.55 288.32-8.7 290.42-8.95L290.42-8.95 290.42-9.5Q288.42-10.5 287.3-12.48 286.17-14.45 286.17-17.45L286.17-17.45Q286.17-21.85 288.57-24.1 290.97-26.35 295.02-26.35L295.02-26.35Q297.42-26.35 299.37-25.5L299.37-25.5 299.37-26.4Q299.37-27.85 300.02-28.5 300.67-29.15 302.12-29.15L302.12-29.15 305.57-29.15 305.57-25.8 301.12-25.8 301.12-24.4Q302.42-23.25 303.15-21.55 303.87-19.85 303.87-17.45L303.87-17.45Q303.87-13.05 301.47-10.8 299.07-8.55 295.02-8.55L295.02-8.55Q293.82-8.55 292.57-8.8L292.57-8.8Q291.17-8.55 290.45-7.68 289.72-6.8 289.72-5.9L289.72-5.9Q289.72-4.9 290.42-4.4 291.12-3.9 292.72-3.9L292.72-3.9 298.37-3.9Q302.72-3.9 304.62-2.15 306.52-0.4 306.52 2.9ZM302.97 3.15L302.97 3.15Q302.97 1.45 301.92 0.58 300.87-0.3 298.32-0.3L298.32-0.3 290.47-0.3Q289.32 0.25 288.85 1.1 288.37 1.95 288.37 3.25L288.37 3.25Q288.37 5.2 289.57 6.33 290.77 7.45 293.42 7.45L293.42 7.45 296.72 7.45Q299.82 7.45 301.4 6.43 302.97 5.4 302.97 3.15ZM295.02-11.65L295.02-11.65Q297.37-11.65 298.67-12.85 299.97-14.05 299.97-16.55L299.97-16.55 299.97-18.4Q299.97-20.9 298.67-22.1 297.37-23.3 295.02-23.3L295.02-23.3Q292.67-23.3 291.37-22.1 290.07-20.9 290.07-18.4L290.07-18.4 290.07-16.55Q290.07-14.05 291.37-12.85 292.67-11.65 295.02-11.65ZM312.57-32.05L312.57-32.05Q310.22-32.05 310.22-34.1L310.22-34.1 310.22-34.9Q310.22-36.95 312.57-36.95L312.57-36.95Q314.92-36.95 314.92-34.9L314.92-34.9 314.92-34.1Q314.92-32.05 312.57-32.05ZM310.67 0L310.67-25.8 314.47-25.8 314.47 0 310.67 0ZM331.67 0L327.17 0 319.07-25.8 322.87-25.8 326.82-12.8 329.22-3.35 329.72-3.35 332.12-12.8 336.07-25.8 339.77-25.8 331.67 0ZM352.81 0.6L352.81 0.6Q350.56 0.6 348.61-0.15 346.66-0.9 345.26-2.55 343.86-4.2 343.06-6.75 342.26-9.3 342.26-12.9L342.26-12.9Q342.26-16.5 343.06-19.05 343.86-21.6 345.26-23.25 346.66-24.9 348.61-25.65 350.56-26.4 352.81-26.4L352.81-26.4Q355.06-26.4 356.94-25.65 358.81-24.9 360.11-23.25 361.41-21.6 362.14-19.05 362.86-16.5 362.86-12.9L362.86-12.9 362.86-11.95 346.31-11.95 346.31-10.3Q346.31-6.5 348.04-4.63 349.76-2.75 352.81-2.75L352.81-2.75Q355.41-2.75 357.06-3.88 358.71-5 359.66-7.25L359.66-7.25 362.26-5.35Q361.06-2.7 358.74-1.05 356.41 0.6 352.81 0.6ZM352.81-23.2L352.81-23.2Q349.71-23.2 348.01-21.25 346.31-19.3 346.31-15.5L346.31-15.5 346.31-14.85 358.81-14.85 358.81-15.5Q358.81-23.2 352.81-23.2ZM375.91 0.6L375.91 0.6Q372.71 0.6 370.44-0.7 368.16-2 366.56-4.3L366.56-4.3 369.21-6.5Q370.56-4.6 372.14-3.6 373.71-2.6 375.91-2.6L375.91-2.6Q378.16-2.6 379.49-3.73 380.81-4.85 380.81-6.95L380.81-6.95Q380.81-8.65 379.96-9.7 379.11-10.75 376.81-11.15L376.81-11.15 374.86-11.5Q371.11-12.2 369.29-13.85 367.46-15.5 367.46-18.85L367.46-18.85Q367.46-20.8 368.06-22.23 368.66-23.65 369.76-24.58 370.86-25.5 372.39-25.93 373.91-26.35 375.71-26.35L375.71-26.35Q378.61-26.35 380.59-25.33 382.56-24.3 384.01-22.35L384.01-22.35 381.56-20.1Q380.71-21.3 379.31-22.23 377.91-23.15 375.71-23.15L375.71-23.15Q371.16-23.15 371.16-19L371.16-19Q371.16-17.1 372.14-16.23 373.11-15.35 375.31-14.95L375.31-14.95 377.26-14.6Q381.21-13.9 382.86-12.15 384.51-10.4 384.51-7.4L384.51-7.4Q384.51-3.65 382.34-1.53 380.16 0.6 375.91 0.6ZM401.31 10L401.31-25.8 405.11-25.8 405.11-21.6 405.61-21.6Q406.36-24.15 408.03-25.28 409.71-26.4 412.11-26.4L412.11-26.4Q414.41-26.4 416.16-25.45 417.91-24.5 419.11-22.75 420.31-21 420.91-18.5 421.51-16 421.51-12.9L421.51-12.9Q421.51-9.8 420.91-7.3 420.31-4.8 419.11-3.05 417.91-1.3 416.16-0.35 414.41 0.6 412.11 0.6L412.11 0.6Q409.71 0.6 408.03-0.53 406.36-1.65 405.61-4.2L405.61-4.2 405.11-4.2 405.11 10 401.31 10ZM410.96-2.8L410.96-2.8Q414.11-2.8 415.76-4.78 417.41-6.75 417.41-10.3L417.41-10.3 417.41-15.5Q417.41-19.05 415.76-21.03 414.11-23 410.96-23L410.96-23Q409.76-23 408.68-22.65 407.61-22.3 406.83-21.65 406.06-21 405.58-20.1 405.11-19.2 405.11-18.1L405.11-18.1 405.11-7.7Q405.11-6.6 405.58-5.7 406.06-4.8 406.83-4.15 407.61-3.5 408.68-3.15 409.76-2.8 410.96-2.8ZM434.55 0L431.4 0Q429.35 0 428.43-0.93 427.5-1.85 427.5-3.9L427.5-3.9 427.5-37 431.3-37 431.3-3.35 434.55-3.35 434.55 0ZM448.65 0.6L448.65 0.6Q446.4 0.6 444.45-0.15 442.5-0.9 441.1-2.55 439.7-4.2 438.9-6.75 438.1-9.3 438.1-12.9L438.1-12.9Q438.1-16.5 438.9-19.05 439.7-21.6 441.1-23.25 442.5-24.9 444.45-25.65 446.4-26.4 448.65-26.4L448.65-26.4Q450.9-26.4 452.78-25.65 454.65-24.9 455.95-23.25 457.25-21.6 457.98-19.05 458.7-16.5 458.7-12.9L458.7-12.9 458.7-11.95 442.15-11.95 442.15-10.3Q442.15-6.5 443.88-4.63 445.6-2.75 448.65-2.75L448.65-2.75Q451.25-2.75 452.9-3.88 454.55-5 455.5-7.25L455.5-7.25 458.1-5.35Q456.9-2.7 454.58-1.05 452.25 0.6 448.65 0.6ZM448.65-23.2L448.65-23.2Q445.55-23.2 443.85-21.25 442.15-19.3 442.15-15.5L442.15-15.5 442.15-14.85 454.65-14.85 454.65-15.5Q454.65-23.2 448.65-23.2ZM483.6 0L480.9 0Q477.2 0 477.2-3.7L477.2-3.7 477.2-4.2 476.7-4.2Q476.05-1.85 474.32-0.63 472.6 0.6 470.2 0.6L470.2 0.6Q466.45 0.6 464.6-1.3 462.75-3.2 462.75-6.9L462.75-6.9Q462.75-10.5 465.12-12.6 467.5-14.7 472.55-14.7L472.55-14.7 477.2-14.7 477.2-17.55Q477.2-20.4 475.92-21.75 474.65-23.1 471.9-23.1L471.9-23.1Q469.65-23.1 468.27-22.13 466.9-21.15 465.9-19.3L465.9-19.3 463.65-21.4Q464.65-23.5 466.85-24.93 469.05-26.35 472.05-26.35L472.05-26.35Q476.45-26.35 478.72-24.23 481-22.1 481-17.95L481-17.95 481-3.35 483.6-3.35 483.6 0ZM471.15-2.7L471.15-2.7Q472.45-2.7 473.57-3.15 474.7-3.6 475.5-4.33 476.3-5.05 476.75-5.98 477.2-6.9 477.2-7.9L477.2-7.9 477.2-11.8 472.45-11.8Q469.45-11.8 468.07-10.8 466.7-9.8 466.7-7.9L466.7-7.9 466.7-6.5Q466.7-4.55 467.9-3.63 469.1-2.7 471.15-2.7ZM495.9 0.6L495.9 0.6Q492.7 0.6 490.42-0.7 488.15-2 486.55-4.3L486.55-4.3 489.2-6.5Q490.55-4.6 492.12-3.6 493.7-2.6 495.9-2.6L495.9-2.6Q498.15-2.6 499.47-3.73 500.8-4.85 500.8-6.95L500.8-6.95Q500.8-8.65 499.95-9.7 499.1-10.75 496.8-11.15L496.8-11.15 494.85-11.5Q491.1-12.2 489.27-13.85 487.45-15.5 487.45-18.85L487.45-18.85Q487.45-20.8 488.05-22.23 488.65-23.65 489.75-24.58 490.85-25.5 492.37-25.93 493.9-26.35 495.7-26.35L495.7-26.35Q498.6-26.35 500.57-25.33 502.55-24.3 504-22.35L504-22.35 501.55-20.1Q500.7-21.3 499.3-22.23 497.9-23.15 495.7-23.15L495.7-23.15Q491.15-23.15 491.15-19L491.15-19Q491.15-17.1 492.12-16.23 493.1-15.35 495.3-14.95L495.3-14.95 497.25-14.6Q501.2-13.9 502.85-12.15 504.5-10.4 504.5-7.4L504.5-7.4Q504.5-3.65 502.32-1.53 500.15 0.6 495.9 0.6ZM524.94 0L524.94-4.2 524.44-4.2Q523.69-1.8 522.12-0.6 520.54 0.6 517.84 0.6L517.84 0.6Q514.39 0.6 512.42-1.75 510.44-4.1 510.44-9L510.44-9 510.44-25.8 514.24-25.8 514.24-9.25Q514.24-6.15 515.52-4.5 516.79-2.85 519.44-2.85L519.44-2.85Q521.74-2.85 523.34-4.25 524.94-5.65 524.94-8.2L524.94-8.2 524.94-25.8 528.74-25.8 528.74 0 524.94 0ZM540.14 0L536.34 0 536.34-25.8 540.14-25.8 540.14-21 540.64-21Q541.29-23.25 542.87-24.53 544.44-25.8 546.99-25.8L546.99-25.8 548.39-25.8 548.39-21.95 545.89-21.95Q543.19-21.95 541.66-20.75 540.14-19.55 540.14-17.15L540.14-17.15 540.14 0ZM561.64 0.6L561.64 0.6Q559.39 0.6 557.44-0.15 555.49-0.9 554.09-2.55 552.69-4.2 551.89-6.75 551.09-9.3 551.09-12.9L551.09-12.9Q551.09-16.5 551.89-19.05 552.69-21.6 554.09-23.25 555.49-24.9 557.44-25.65 559.39-26.4 561.64-26.4L561.64-26.4Q563.89-26.4 565.76-25.65 567.64-24.9 568.94-23.25 570.24-21.6 570.96-19.05 571.69-16.5 571.69-12.9L571.69-12.9 571.69-11.95 555.14-11.95 555.14-10.3Q555.14-6.5 556.86-4.63 558.59-2.75 561.64-2.75L561.64-2.75Q564.24-2.75 565.89-3.88 567.54-5 568.49-7.25L568.49-7.25 571.09-5.35Q569.89-2.7 567.56-1.05 565.24 0.6 561.64 0.6ZM561.64-23.2L561.64-23.2Q558.54-23.2 556.84-21.25 555.14-19.3 555.14-15.5L555.14-15.5 555.14-14.85 567.64-14.85 567.64-15.5Q567.64-23.2 561.64-23.2ZM598.03 0L593.38 0Q591.33 0 590.41-0.93 589.48-1.85 589.48-3.9L589.48-3.9 589.48-22.45 585.68-22.45 585.68-25.8 587.93-25.8Q589.08-25.8 589.46-26.38 589.83-26.95 589.83-28.1L589.83-28.1 589.83-32.9 593.28-32.9 593.28-25.8 598.28-25.8 598.28-22.45 593.28-22.45 593.28-3.35 598.03-3.35 598.03 0ZM612.68 0.6L612.68 0.6Q610.43 0.6 608.48-0.15 606.53-0.9 605.13-2.55 603.73-4.2 602.93-6.75 602.13-9.3 602.13-12.9L602.13-12.9Q602.13-16.5 602.93-19.05 603.73-21.6 605.13-23.25 606.53-24.9 608.48-25.65 610.43-26.4 612.68-26.4L612.68-26.4Q614.93-26.4 616.88-25.65 618.83-24.9 620.23-23.25 621.63-21.6 622.43-19.05 623.23-16.5 623.23-12.9L623.23-12.9Q623.23-9.3 622.43-6.75 621.63-4.2 620.23-2.55 618.83-0.9 616.88-0.15 614.93 0.6 612.68 0.6ZM612.68-2.8L612.68-2.8Q615.78-2.8 617.45-4.65 619.13-6.5 619.13-10.3L619.13-10.3 619.13-15.5Q619.13-19.3 617.45-21.15 615.78-23 612.68-23L612.68-23Q609.58-23 607.9-21.15 606.23-19.3 606.23-15.5L606.23-15.5 606.23-10.3Q606.23-6.5 607.9-4.65 609.58-2.8 612.68-2.8ZM648.17 0.6L648.17 0.6Q643.37 0.6 640.65-2.55 637.92-5.7 637.92-12.9L637.92-12.9Q637.92-20.1 640.65-23.25 643.37-26.4 648.17-26.4L648.17-26.4Q651.82-26.4 654-24.73 656.17-23.05 657.17-20.45L657.17-20.45 654.02-18.85Q653.37-20.85 651.97-21.93 650.57-23 648.17-23L648.17-23Q645.02-23 643.52-21.15 642.02-19.3 642.02-15.5L642.02-15.5 642.02-10.3Q642.02-6.5 643.52-4.65 645.02-2.8 648.17-2.8L648.17-2.8Q650.67-2.8 652.2-3.9 653.72-5 654.62-7.25L654.62-7.25 657.42-5.3Q656.27-2.6 653.95-1 651.62 0.6 648.17 0.6ZM666.17 0L662.37 0 662.37-25.8 666.17-25.8 666.17-21 666.67-21Q667.32-23.25 668.9-24.53 670.47-25.8 673.02-25.8L673.02-25.8 674.42-25.8 674.42-21.95 671.92-21.95Q669.22-21.95 667.7-20.75 666.17-19.55 666.17-17.15L666.17-17.15 666.17 0ZM687.67 0.6L687.67 0.6Q685.42 0.6 683.47-0.15 681.52-0.9 680.12-2.55 678.72-4.2 677.92-6.75 677.12-9.3 677.12-12.9L677.12-12.9Q677.12-16.5 677.92-19.05 678.72-21.6 680.12-23.25 681.52-24.9 683.47-25.65 685.42-26.4 687.67-26.4L687.67-26.4Q689.92-26.4 691.79-25.65 693.67-24.9 694.97-23.25 696.27-21.6 696.99-19.05 697.72-16.5 697.72-12.9L697.72-12.9 697.72-11.95 681.17-11.95 681.17-10.3Q681.17-6.5 682.89-4.63 684.62-2.75 687.67-2.75L687.67-2.75Q690.27-2.75 691.92-3.88 693.57-5 694.52-7.25L694.52-7.25 697.12-5.35Q695.92-2.7 693.59-1.05 691.27 0.6 687.67 0.6ZM687.67-23.2L687.67-23.2Q684.57-23.2 682.87-21.25 681.17-19.3 681.17-15.5L681.17-15.5 681.17-14.85 693.67-14.85 693.67-15.5Q693.67-23.2 687.67-23.2ZM722.62 0L719.92 0Q716.22 0 716.22-3.7L716.22-3.7 716.22-4.2 715.72-4.2Q715.07-1.85 713.34-0.63 711.62 0.6 709.22 0.6L709.22 0.6Q705.47 0.6 703.62-1.3 701.77-3.2 701.77-6.9L701.77-6.9Q701.77-10.5 704.14-12.6 706.52-14.7 711.57-14.7L711.57-14.7 716.22-14.7 716.22-17.55Q716.22-20.4 714.94-21.75 713.67-23.1 710.92-23.1L710.92-23.1Q708.67-23.1 707.29-22.13 705.92-21.15 704.92-19.3L704.92-19.3 702.67-21.4Q703.67-23.5 705.87-24.93 708.07-26.35 711.07-26.35L711.07-26.35Q715.47-26.35 717.74-24.23 720.02-22.1 720.02-17.95L720.02-17.95 720.02-3.35 722.62-3.35 722.62 0ZM710.17-2.7L710.17-2.7Q711.47-2.7 712.59-3.15 713.72-3.6 714.52-4.33 715.32-5.05 715.77-5.98 716.22-6.9 716.22-7.9L716.22-7.9 716.22-11.8 711.47-11.8Q708.47-11.8 707.09-10.8 705.72-9.8 705.72-7.9L705.72-7.9 705.72-6.5Q705.72-4.55 706.92-3.63 708.12-2.7 710.17-2.7ZM737.56 0L732.91 0Q730.86 0 729.94-0.93 729.01-1.85 729.01-3.9L729.01-3.9 729.01-22.45 725.21-22.45 725.21-25.8 727.46-25.8Q728.61-25.8 728.99-26.38 729.36-26.95 729.36-28.1L729.36-28.1 729.36-32.9 732.81-32.9 732.81-25.8 737.81-25.8 737.81-22.45 732.81-22.45 732.81-3.35 737.56-3.35 737.56 0ZM745.51-32.05L745.51-32.05Q743.16-32.05 743.16-34.1L743.16-34.1 743.16-34.9Q743.16-36.95 745.51-36.95L745.51-36.95Q747.86-36.95 747.86-34.9L747.86-34.9 747.86-34.1Q747.86-32.05 745.51-32.05ZM743.61 0L743.61-25.8 747.41-25.8 747.41 0 743.61 0ZM764.61 0L760.11 0 752.01-25.8 755.81-25.8 759.76-12.8 762.16-3.35 762.66-3.35 765.06-12.8 769.01-25.8 772.71-25.8 764.61 0ZM785.76 0.6L785.76 0.6Q783.51 0.6 781.56-0.15 779.61-0.9 778.21-2.55 776.81-4.2 776.01-6.75 775.21-9.3 775.21-12.9L775.21-12.9Q775.21-16.5 776.01-19.05 776.81-21.6 778.21-23.25 779.61-24.9 781.56-25.65 783.51-26.4 785.76-26.4L785.76-26.4Q788.01-26.4 789.88-25.65 791.76-24.9 793.06-23.25 794.36-21.6 795.08-19.05 795.81-16.5 795.81-12.9L795.81-12.9 795.81-11.95 779.26-11.95 779.26-10.3Q779.26-6.5 780.98-4.63 782.71-2.75 785.76-2.75L785.76-2.75Q788.36-2.75 790.01-3.88 791.66-5 792.61-7.25L792.61-7.25 795.21-5.35Q794.01-2.7 791.68-1.05 789.36 0.6 785.76 0.6ZM785.76-23.2L785.76-23.2Q782.66-23.2 780.96-21.25 779.26-19.3 779.26-15.5L779.26-15.5 779.26-14.85 791.76-14.85 791.76-15.5Q791.76-23.2 785.76-23.2ZM808.85 0.6L808.85 0.6Q805.65 0.6 803.38-0.7 801.1-2 799.5-4.3L799.5-4.3 802.15-6.5Q803.5-4.6 805.08-3.6 806.65-2.6 808.85-2.6L808.85-2.6Q811.1-2.6 812.43-3.73 813.75-4.85 813.75-6.95L813.75-6.95Q813.75-8.65 812.9-9.7 812.05-10.75 809.75-11.15L809.75-11.15 807.8-11.5Q804.05-12.2 802.23-13.85 800.4-15.5 800.4-18.85L800.4-18.85Q800.4-20.8 801-22.23 801.6-23.65 802.7-24.58 803.8-25.5 805.33-25.93 806.85-26.35 808.65-26.35L808.65-26.35Q811.55-26.35 813.53-25.33 815.5-24.3 816.95-22.35L816.95-22.35 814.5-20.1Q813.65-21.3 812.25-22.23 810.85-23.15 808.65-23.15L808.65-23.15Q804.1-23.15 804.1-19L804.1-19Q804.1-17.1 805.08-16.23 806.05-15.35 808.25-14.95L808.25-14.95 810.2-14.6Q814.15-13.9 815.8-12.15 817.45-10.4 817.45-7.4L817.45-7.4Q817.45-3.65 815.28-1.53 813.1 0.6 808.85 0.6Z" opacity="1" transform="matrix(1,0,0,1,0,0)" fill="#fefefe" class="undefined-text-1" data-fill-palette-color="secondary" id="text-1"></path></svg></g></svg></g></svg></g></svg></g></svg></g><defs></defs></svg><rect width="347.5872142073216" height="280" fill="none" stroke="none" visibility="hidden"></rect></g></svg></g></svg>