<svg xmlns="http://www.w3.org/2000/svg" xmlns:svgjs="http://svgjs.dev/svgjs" xmlns:xlink="http://www.w3.org/1999/xlink" width="1000" height="1000" version="1.1" viewBox="0 0 1000 1000"><rect width="1000" height="1000" fill="#89939e"/><g transform="matrix(0.7,0,0,0.7,149.5757640577571,440.1979189849245)"><svg xmlns="http://www.w3.org/2000/svg" xmlns:xlink="http://www.w3.org/1999/xlink" width="1000" height="171" data-background-color="#89939e" preserveAspectRatio="xMidYMid meet" viewBox="0 0 396 68"><g id="tight-bounds" transform="matrix(1,0,0,1,0.23999635408364384,-0.02722214682427193)"><svg width="395.52" height="68.054" viewBox="0 0 395.52 68.054"><g><svg width="395.52" height="68.054" viewBox="0 0 489.027 84.144"><g transform="matrix(1,0,0,1,0,11.629112422064338)"><svg width="395.52" height="60.885" viewBox="0 0 395.52 60.885"><g><svg width="395.52" height="60.885" viewBox="0 0 395.52 60.885"><g><svg width="395.52" height="39.664" viewBox="0 0 395.52 39.664"><g transform="matrix(1,0,0,1,0,0)"><svg width="395.52" height="39.664" data-palette-color="#ffffff" viewBox="0.29 -31.91 326.19 32.72"><path id="text-0" fill="#fff" d="M0.29-5.37Q0.29-3.76 1.01-2.42 1.73-1.07 3.09-0.28 4.44 0.51 6.3 0.51L6.3 0.51Q7.71 0.51 9.02-0.06 10.33-0.63 11.19-1.54 12.06-2.44 12.23-3.39L12.23-3.39 12.57-3.39 12.6-3.08Q12.72-1.32 13.89-0.37 15.06 0.59 17.11 0.59L17.11 0.59Q19.17 0.59 21.41-0.83L21.41-0.83 22.02-4.69 21.34-4.88Q20.58-5.13 20.12-5.55 19.65-5.98 19.42-6.84 19.19-7.69 19.19-9.13L19.19-9.13 19.19-15.65Q19.19-19.53 16.89-21.22 14.6-22.9 10.91-22.9L10.91-22.9Q6.76-22.9 4.11-21.59 1.46-20.29 1.46-17.41L1.46-17.41Q1.46-16.48 2-15.66 2.54-14.84 3.58-14.28 4.61-13.72 6.03-13.57L6.03-13.57Q6.67-15.14 7.75-16.3 8.84-17.46 9.84-17.46L9.84-17.46Q10.62-17.46 11.15-16.89 11.67-16.33 11.67-15.55L11.67-15.55 11.67-13.16Q8.52-13.26 5.94-12.46 3.37-11.67 1.83-9.89 0.29-8.11 0.29-5.37L0.29-5.37ZM7.74-7.47Q7.74-8.33 8.42-8.91 9.11-9.5 10.05-9.79 10.99-10.08 11.67-10.08L11.67-10.08 11.67-6.2Q10.67-5.49 9.67-5.49L9.67-5.49Q8.69-5.49 8.22-5.97 7.74-6.45 7.74-7.47L7.74-7.47ZM33.01-30.81L32.03-31.91 23.09-31.25 22.39-27.73 25.34-25.76 25.34-5.25 22.78-3.49 22.26 0 34.86 0 35.42-3.78 33.01-5.18 33.01-30.81ZM57.12-30.74L56.15-31.84 47.82-31.18 47.11-27.66 50.56-25.68 50.56-23.1 50.8-21.09 50.7-21.09Q50.07-22.17 49.02-22.66 47.97-23.14 46.67-23.14L46.67-23.14Q43.31-23.14 40.93-21.23 38.54-19.31 37.36-16.28 36.18-13.26 36.18-9.94L36.18-9.94Q36.18-7.1 37.04-4.74 37.91-2.37 39.63-0.95 41.35 0.46 43.82 0.46L43.82 0.46Q46.36 0.46 48.01-0.49 49.65-1.44 50.24-3.2L50.24-3.2 50.58-3.2 50.61-2.88Q50.73-1.29 51.92-0.35 53.12 0.59 55.12 0.59L55.12 0.59Q57.29 0.59 59.66-0.83L59.66-0.83 60.27-4.69 59.59-4.88Q58.76-5.13 58.25-5.55 57.73-5.98 57.47-6.84 57.2-7.69 57.2-9.13L57.2-9.13 57.12-30.74ZM47.55-17.07Q48.16-17.07 48.55-16.92 48.95-16.77 49.65-16.33L49.65-16.33 49.65-5.69Q48.33-5.03 47.31-5.03L47.31-5.03Q45.55-5.03 44.73-6.57 43.92-8.11 43.92-11.45L43.92-11.45Q43.92-12.77 44.36-14.07 44.79-15.38 45.62-16.22 46.45-17.07 47.55-17.07L47.55-17.07ZM76.51-3.49L76.16 0 86.2 0 86.76-3.78 84.34-5.18 84.34-15.65Q84.34-19.29 82.76-20.98 81.17-22.68 78.34-22.68L78.34-22.68Q76.21-22.68 74.41-21.59 72.6-20.51 70.55-18.33L70.55-18.33 70.18-18.33 70.82-21.92 70.82-30.74 69.84-31.84 61.27-31.18 60.56-27.66 63.52-25.68 63.52-5.25 60.95-3.49 60.44 0 73.6 0 74.28-3.71 71.28-5.25 71.28-14.82Q72.72-15.63 73.92-15.63L73.92-15.63Q75.29-15.63 75.94-14.83 76.6-14.04 76.6-12.06L76.6-12.06 76.6-4.61 76.51-3.49ZM87.1-5.37Q87.1-3.76 87.82-2.42 88.54-1.07 89.89-0.28 91.25 0.51 93.11 0.51L93.11 0.51Q94.52 0.51 95.83-0.06 97.13-0.63 98-1.54 98.87-2.44 99.04-3.39L99.04-3.39 99.38-3.39 99.4-3.08Q99.53-1.32 100.7-0.37 101.87 0.59 103.92 0.59L103.92 0.59Q105.97 0.59 108.22-0.83L108.22-0.83 108.83-4.69 108.14-4.88Q107.39-5.13 106.92-5.55 106.46-5.98 106.23-6.84 106-7.69 106-9.13L106-9.13 106-15.65Q106-19.53 103.7-21.22 101.41-22.9 97.72-22.9L97.72-22.9Q93.57-22.9 90.92-21.59 88.27-20.29 88.27-17.41L88.27-17.41Q88.27-16.48 88.81-15.66 89.35-14.84 90.38-14.28 91.42-13.72 92.84-13.57L92.84-13.57Q93.47-15.14 94.56-16.3 95.64-17.46 96.65-17.46L96.65-17.46Q97.43-17.46 97.95-16.89 98.48-16.33 98.48-15.55L98.48-15.55 98.48-13.16Q95.33-13.26 92.75-12.46 90.18-11.67 88.64-9.89 87.1-8.11 87.1-5.37L87.1-5.37ZM94.55-7.47Q94.55-8.33 95.23-8.91 95.91-9.5 96.85-9.79 97.79-10.08 98.48-10.08L98.48-10.08 98.48-6.2Q97.48-5.49 96.47-5.49L96.47-5.49Q95.5-5.49 95.02-5.97 94.55-6.45 94.55-7.47L94.55-7.47ZM115.86-23.88Q118.54-23.88 119.86-24.99 121.18-26.1 121.18-27.76L121.18-27.76Q121.18-28.78 120.59-29.64 120.01-30.49 118.81-30.99 117.61-31.49 115.91-31.49L115.91-31.49Q114.1-31.49 112.82-31.01 111.54-30.52 110.89-29.68 110.24-28.83 110.24-27.78L110.24-27.78Q110.24-26.05 111.56-24.96 112.88-23.88 115.86-23.88L115.86-23.88ZM119.81-21.29L118.84-22.39 109.9-21.73 109.19-18.21 112.15-16.24 112.15-5.25 109.58-3.49 109.07 0 121.67 0 122.23-3.78 119.81-5.18 119.81-21.29ZM122.91-3.49L122.4 0 137.92 0 138.36-4.1 132.94-5.64 132.94-12.94Q134.58-13.67 137.46-13.67L137.46-13.67Q139.17-13.67 141.44-13.09L141.44-13.09Q142.49-15.67 142.49-18.09L142.49-18.09Q142.49-20.17 141.56-21.44 140.63-22.71 138.49-22.71L138.49-22.71Q136.8-22.71 135.17-20.96 133.53-19.21 132.48-16.06L132.48-16.06 132.02-16.06 132.02-21.46 131.09-22.41 123.11-21.7 122.45-18.33 125.38-16.43 125.47-5.25 122.91-3.49ZM143.24-18.8L145.73-17.09 152.33 0.78 159.14 0.15 165.49-17.11 167.59-18.51 168.2-22.31 158.87-22.31 158.28-18.85 160.24-17.29 157.26-7.86 154.23-17.11 156.5-18.51 156.99-22.31 143.78-22.31 143.24-18.8ZM178.86 0.76Q181.38 0.76 183.12 0.01 184.87-0.73 185.97-1.89 187.06-3.05 188.07-4.69L188.07-4.69 185.65-7.69Q184.75-6.86 183.29-6.35 181.84-5.83 180.57-5.83L180.57-5.83Q178.62-5.83 177.67-6.62 176.71-7.4 176.66-8.96L176.66-8.96 186.87-9.3Q186.99-9.99 187.19-11.78 187.38-13.57 187.38-14.16L187.38-14.16Q187.38-16.77 186.52-18.82 185.65-20.87 183.96-22.03 182.28-23.19 179.91-23.19L179.91-23.19Q176.66-23.19 174.1-21.57 171.54-19.95 170.1-17.05 168.66-14.16 168.66-10.5L168.66-10.5Q168.66-6.86 169.94-4.32 171.22-1.78 173.53-0.51 175.83 0.76 178.86 0.76L178.86 0.76ZM178.13-18.19Q179.01-18.19 179.46-17.11 179.91-16.04 179.91-14.21L179.91-14.21Q179.91-13.5 179.84-12.72L179.84-12.72 176.54-12.16Q176.42-13.62 176.42-14.48L176.42-14.48Q176.42-16.43 176.85-17.31 177.27-18.19 178.13-18.19L178.13-18.19ZM189.06-3.49L188.55 0 204.08 0 204.52-4.1 199.1-5.64 199.1-12.94Q200.73-13.67 203.62-13.67L203.62-13.67Q205.32-13.67 207.59-13.09L207.59-13.09Q208.64-15.67 208.64-18.09L208.64-18.09Q208.64-20.17 207.72-21.44 206.79-22.71 204.64-22.71L204.64-22.71Q202.96-22.71 201.32-20.96 199.68-19.21 198.63-16.06L198.63-16.06 198.17-16.06 198.17-21.46 197.24-22.41 189.26-21.7 188.6-18.33 191.53-16.43 191.63-5.25 189.06-3.49ZM209.45-5.37Q209.45-3.76 210.17-2.42 210.89-1.07 212.24-0.28 213.6 0.51 215.45 0.51L215.45 0.51Q216.87 0.51 218.18-0.06 219.48-0.63 220.35-1.54 221.22-2.44 221.39-3.39L221.39-3.39 221.73-3.39 221.75-3.08Q221.87-1.32 223.05-0.37 224.22 0.59 226.27 0.59L226.27 0.59Q228.32 0.59 230.57-0.83L230.57-0.83 231.18-4.69 230.49-4.88Q229.74-5.13 229.27-5.55 228.81-5.98 228.58-6.84 228.34-7.69 228.34-9.13L228.34-9.13 228.34-15.65Q228.34-19.53 226.05-21.22 223.75-22.9 220.07-22.9L220.07-22.9Q215.92-22.9 213.27-21.59 210.62-20.29 210.62-17.41L210.62-17.41Q210.62-16.48 211.16-15.66 211.69-14.84 212.73-14.28 213.77-13.72 215.18-13.57L215.18-13.57Q215.82-15.14 216.91-16.3 217.99-17.46 218.99-17.46L218.99-17.46Q219.77-17.46 220.3-16.89 220.82-16.33 220.82-15.55L220.82-15.55 220.82-13.16Q217.68-13.26 215.1-12.46 212.52-11.67 210.99-9.89 209.45-8.11 209.45-5.37L209.45-5.37ZM216.89-7.47Q216.89-8.33 217.58-8.91 218.26-9.5 219.2-9.79 220.14-10.08 220.82-10.08L220.82-10.08 220.82-6.2Q219.82-5.49 218.82-5.49L218.82-5.49Q217.85-5.49 217.37-5.97 216.89-6.45 216.89-7.47L216.89-7.47ZM237.84 0.63Q240.72 0.63 241.95-0.4 243.19-1.44 243.19-3.17L243.19-3.17Q243.19-4.08 242.7-4.9 242.21-5.71 241.02-6.27 239.84-6.84 237.86-6.84L237.86-6.84Q236.01-6.84 234.86-6.26 233.71-5.69 233.24-4.85 232.76-4 232.76-3.1L232.76-3.1Q232.76 0.63 237.84 0.63L237.84 0.63ZM254.58 0.78Q257.98 0.78 260.07-0.77 262.15-2.32 263.08-5.05L263.08-5.05 260.39-8.08Q259.81-7.13 258.78-6.58 257.76-6.03 256.64-6.03L256.64-6.03Q254.54-6.03 253.69-8.18 252.85-10.33 252.85-13.4L252.85-13.4Q252.85-16.09 254.27-16.09L254.27-16.09Q255.44-16.09 256.64-15.28 257.83-14.48 258.88-13.04L258.88-13.04Q259.81-13.26 260.59-14.07 261.37-14.89 261.85-16.05 262.32-17.21 262.32-18.46L262.32-18.46Q262.32-20.58 260.8-21.85 259.27-23.12 256.68-23.12L256.68-23.12Q254.1-23.12 251.45-21.3 248.8-19.48 247.06-16.33 245.33-13.18 245.33-9.42L245.33-9.42Q245.33 0.78 254.58 0.78L254.58 0.78ZM275.14 0.81Q278.68 0.81 281.16-0.68 283.63-2.17 284.93-5.04 286.22-7.91 286.22-11.99L286.22-11.99Q286.22-17.53 283.54-20.39 280.85-23.24 275.65-23.24L275.65-23.24Q272.7-23.24 270.08-21.78 267.47-20.31 265.89-17.55 264.3-14.79 264.3-11.13L264.3-11.13Q264.3-5.2 266.89-2.2 269.47 0.81 275.14 0.81L275.14 0.81ZM274.72-17.92Q276.31-17.92 277.14-15.61 277.97-13.31 277.97-10.21L277.97-10.21Q277.97-7.3 277.48-5.83 276.99-4.37 275.9-4.37L275.9-4.37Q274.89-4.37 274.11-5.31 273.33-6.25 272.89-7.96 272.45-9.67 272.45-11.94L272.45-11.94Q272.45-14.97 272.95-16.44 273.45-17.92 274.72-17.92L274.72-17.92ZM300.67-15.63Q302.04-15.63 302.7-14.83 303.36-14.04 303.36-12.06L303.36-12.06 303.36-4.61 303.26-3.49 302.92 0 312.95 0 313.51-3.78 311.1-5.18 311.1-14.92Q312.68-15.63 313.91-15.63L313.91-15.63Q315.13-15.63 315.72-14.83 316.32-14.04 316.32-12.06L316.32-12.06 316.32-4.61 316.22-3.49 315.88 0 325.92 0 326.48-3.78 324.06-5.18 324.06-15.65Q324.06-19.29 322.54-20.98 321.01-22.68 318.32-22.68L318.32-22.68Q316.35-22.68 314.66-21.72 312.98-20.75 311.1-18.82L311.1-18.82 310.68-18.82Q310.07-20.8 308.64-21.74 307.22-22.68 305.09-22.68L305.09-22.68Q303.16-22.68 301.53-21.72 299.89-20.75 298.04-18.82L298.04-18.82 297.67-18.82 297.67-21.46 296.74-22.41 288.05-21.7 287.39-18.33 290.27-16.36 290.27-5.25 287.71-3.49 287.2 0 300.36 0 301.04-3.71 298.04-5.25 298.04-14.82Q299.48-15.63 300.67-15.63L300.67-15.63Z" class="undefined-text-0" data-fill-palette-color="primary" opacity="1" transform="matrix(1,0,0,1,0,0)"/></svg></g></svg></g><g transform="matrix(1,0,0,1,163.310208,49.02831346780422)"><svg width="232.21" height="11.857" viewBox="0 0 232.21 11.857"><g transform="matrix(1,0,0,1,0,0)"><svg width="232.21" height="11.857" data-palette-color="#ffffff" viewBox="5 -37 920.35 47"><path id="text-1" fill="#fff" d="M6-35L18-35Q20.85-35 22.98-33.8 25.1-32.6 26.28-30.45 27.45-28.3 27.45-25.45L27.45-25.45Q27.45-22.65 26.28-20.4 25.1-18.15 22.98-16.85 20.85-15.55 18-15.55L18-15.55 6.9-15.55 7.1-15.9 7.1-1Q7.1-0.6 6.78-0.3 6.45 0 6.05 0L6.05 0Q5.55 0 5.28-0.3 5-0.6 5-1L5-1 5-34Q5-34.4 5.3-34.7 5.6-35 6-35L6-35ZM6.9-17.55L18-17.55Q20.3-17.55 21.93-18.57 23.55-19.6 24.45-21.4 25.35-23.2 25.35-25.45L25.35-25.45Q25.35-27.75 24.45-29.43 23.55-31.1 21.93-32.05 20.3-33 18-33L18-33 6.95-33 7.1-33.25 7.1-17.4 6.9-17.55ZM34.85 0L34.85 0Q34.4 0 34.12-0.3 33.85-0.6 33.85-1L33.85-1 33.85-23.95Q33.85-24.35 34.15-24.65 34.45-24.95 34.85-24.95L34.85-24.95Q35.3-24.95 35.57-24.65 35.85-24.35 35.85-23.95L35.85-23.95 35.85-15.5 35-14.2Q35-16.15 35.67-18.15 36.35-20.15 37.65-21.88 38.95-23.6 40.82-24.68 42.7-25.75 45.15-25.75L45.15-25.75Q45.85-25.75 46.65-25.55 47.45-25.35 47.45-24.6L47.45-24.6Q47.45-24.15 47.2-23.85 46.95-23.55 46.55-23.55L46.55-23.55Q46.25-23.55 45.82-23.78 45.4-24 44.6-24L44.6-24Q43-24 41.45-23.05 39.9-22.1 38.62-20.53 37.35-18.95 36.6-17.1 35.85-15.25 35.85-13.5L35.85-13.5 35.85-1Q35.85-0.6 35.55-0.3 35.25 0 34.85 0ZM74.05-12.6L74.05-12.6Q74.05-8.9 72.45-5.93 70.84-2.95 68.07-1.23 65.3 0.5 61.75 0.5L61.75 0.5Q58.25 0.5 55.45-1.23 52.65-2.95 51.02-5.93 49.4-8.9 49.4-12.6L49.4-12.6Q49.4-16.35 51.02-19.33 52.65-22.3 55.45-24.03 58.25-25.75 61.75-25.75L61.75-25.75Q65.3-25.75 68.07-24.03 70.84-22.3 72.45-19.33 74.05-16.35 74.05-12.6ZM72.05-12.6L72.05-12.6Q72.05-15.85 70.72-18.38 69.4-20.9 67.07-22.38 64.75-23.85 61.75-23.85L61.75-23.85Q58.8-23.85 56.45-22.38 54.1-20.9 52.75-18.38 51.4-15.85 51.4-12.6L51.4-12.6Q51.4-9.4 52.75-6.88 54.1-4.35 56.45-2.88 58.8-1.4 61.75-1.4L61.75-1.4Q64.75-1.4 67.07-2.88 69.4-4.35 70.72-6.88 72.05-9.4 72.05-12.6ZM90.94-25.75L90.94-25.75Q93.19-25.75 95.14-24.95 97.09-24.15 98.57-22.85 100.04-21.55 100.87-20.05 101.69-18.55 101.69-17.1L101.69-17.1 101.04-18.95 101.04-23.95Q101.04-24.35 101.32-24.65 101.59-24.95 102.04-24.95L102.04-24.95Q102.49-24.95 102.77-24.65 103.04-24.35 103.04-23.95L103.04-23.95 103.04-2.45Q103.04 1.4 101.47 4.2 99.89 7 97.14 8.5 94.39 10 90.74 10L90.74 10Q88.74 10 86.72 9.47 84.69 8.95 83.34 8.15 81.99 7.35 81.99 6.45L81.99 6.45Q81.99 6.05 82.22 5.8 82.44 5.55 82.84 5.55L82.84 5.55Q83.34 5.55 83.77 6.1 84.19 6.65 85.29 7.1L85.29 7.1Q85.74 7.25 86.52 7.5 87.29 7.75 88.39 7.93 89.49 8.1 90.84 8.1L90.84 8.1Q95.59 8.1 98.32 5.18 101.04 2.25 101.04-2.45L101.04-2.45 101.04-7.4 101.54-7.35Q100.94-5.2 99.79-3.7 98.64-2.2 97.17-1.28 95.69-0.35 94.07 0.08 92.44 0.5 90.94 0.5L90.94 0.5Q87.49 0.5 84.77-1.23 82.04-2.95 80.44-5.93 78.84-8.9 78.84-12.65L78.84-12.65Q78.84-16.4 80.44-19.38 82.04-22.35 84.77-24.05 87.49-25.75 90.94-25.75ZM91.04-23.85L91.04-23.85Q88.14-23.85 85.82-22.4 83.49-20.95 82.17-18.43 80.84-15.9 80.84-12.65L80.84-12.65Q80.84-9.45 82.17-6.9 83.49-4.35 85.82-2.88 88.14-1.4 91.04-1.4L91.04-1.4Q93.94-1.4 96.24-2.83 98.54-4.25 99.89-6.78 101.24-9.3 101.24-12.65L101.24-12.65Q101.24-16 99.89-18.53 98.54-21.05 96.24-22.45 93.94-23.85 91.04-23.85ZM112.34 0L112.34 0Q111.89 0 111.62-0.3 111.34-0.6 111.34-1L111.34-1 111.34-23.95Q111.34-24.35 111.64-24.65 111.94-24.95 112.34-24.95L112.34-24.95Q112.79-24.95 113.07-24.65 113.34-24.35 113.34-23.95L113.34-23.95 113.34-15.5 112.49-14.2Q112.49-16.15 113.17-18.15 113.84-20.15 115.14-21.88 116.44-23.6 118.32-24.68 120.19-25.75 122.64-25.75L122.64-25.75Q123.34-25.75 124.14-25.55 124.94-25.35 124.94-24.6L124.94-24.6Q124.94-24.15 124.69-23.85 124.44-23.55 124.04-23.55L124.04-23.55Q123.74-23.55 123.32-23.78 122.89-24 122.09-24L122.09-24Q120.49-24 118.94-23.05 117.39-22.1 116.12-20.53 114.84-18.95 114.09-17.1 113.34-15.25 113.34-13.5L113.34-13.5 113.34-1Q113.34-0.6 113.04-0.3 112.74 0 112.34 0ZM149.59-24.95L149.59-24.95Q150.04-24.95 150.31-24.65 150.59-24.35 150.59-23.95L150.59-23.95 150.59-1Q150.59-0.6 150.29-0.3 149.99 0 149.59 0L149.59 0Q149.14 0 148.86-0.3 148.59-0.6 148.59-1L148.59-1 148.59-8.1 149.39-8.75Q149.39-7.15 148.59-5.5 147.79-3.85 146.39-2.5 144.99-1.15 143.09-0.33 141.19 0.5 138.99 0.5L138.99 0.5Q135.64 0.5 133.01-1.25 130.39-3 128.89-6 127.39-9 127.39-12.75L127.39-12.75Q127.39-16.55 128.91-19.48 130.44-22.4 133.06-24.08 135.69-25.75 138.99-25.75L138.99-25.75Q141.14-25.75 143.04-24.98 144.94-24.2 146.36-22.8 147.79-21.4 148.59-19.53 149.39-17.65 149.39-15.45L149.39-15.45 148.59-16.7 148.59-23.95Q148.59-24.35 148.86-24.65 149.14-24.95 149.59-24.95ZM139.09-1.4L139.09-1.4Q141.89-1.4 144.09-2.88 146.29-4.35 147.54-6.93 148.79-9.5 148.79-12.75L148.79-12.75Q148.79-15.85 147.54-18.38 146.29-20.9 144.09-22.38 141.89-23.85 139.09-23.85L139.09-23.85Q136.34-23.85 134.14-22.43 131.94-21 130.66-18.5 129.39-16 129.39-12.75L129.39-12.75Q129.39-9.5 130.64-6.93 131.89-4.35 134.09-2.88 136.29-1.4 139.09-1.4ZM169.54-25.25L169.54-25.25Q172.34-25.25 174.66-23.73 176.99-22.2 177.84-18.95L177.84-18.95 177.19-18.5 177.44-19.45Q178.09-21.1 179.71-22.4 181.34-23.7 183.36-24.48 185.39-25.25 187.29-25.25L187.29-25.25Q190.29-25.25 192.24-23.95 194.19-22.65 195.11-20.48 196.04-18.3 196.04-15.55L196.04-15.55 196.04-1Q196.04-0.6 195.76-0.3 195.49 0 195.04 0L195.04 0Q194.59 0 194.31-0.3 194.04-0.6 194.04-1L194.04-1 194.04-15.35Q194.04-17.55 193.31-19.38 192.59-21.2 191.06-22.28 189.54-23.35 187.09-23.35L187.09-23.35Q184.94-23.35 182.89-22.28 180.84-21.2 179.51-19.38 178.19-17.55 178.19-15.35L178.19-15.35 178.19-1Q178.19-0.6 177.91-0.3 177.64 0 177.19 0L177.19 0Q176.74 0 176.46-0.3 176.19-0.6 176.19-1L176.19-1 176.19-15.6Q176.19-17.75 175.51-19.5 174.84-21.25 173.39-22.3 171.94-23.35 169.54-23.35L169.54-23.35Q167.44-23.35 165.46-22.3 163.49-21.25 162.19-19.5 160.89-17.75 160.89-15.6L160.89-15.6 160.89-1Q160.89-0.6 160.59-0.3 160.29 0 159.89 0L159.89 0Q159.44 0 159.16-0.3 158.89-0.6 158.89-1L158.89-1 158.89-23.95Q158.89-24.35 159.19-24.65 159.49-24.95 159.89-24.95L159.89-24.95Q160.34-24.95 160.61-24.65 160.89-24.35 160.89-23.95L160.89-23.95 160.89-18.5 159.39-15.95Q159.39-17.7 160.24-19.35 161.09-21 162.51-22.33 163.94-23.65 165.76-24.45 167.59-25.25 169.54-25.25ZM214.98-25.25L214.98-25.25Q217.78-25.25 220.11-23.73 222.43-22.2 223.28-18.95L223.28-18.95 222.63-18.5 222.88-19.45Q223.53-21.1 225.16-22.4 226.78-23.7 228.81-24.48 230.83-25.25 232.73-25.25L232.73-25.25Q235.73-25.25 237.68-23.95 239.63-22.65 240.56-20.48 241.48-18.3 241.48-15.55L241.48-15.55 241.48-1Q241.48-0.6 241.21-0.3 240.93 0 240.48 0L240.48 0Q240.03 0 239.76-0.3 239.48-0.6 239.48-1L239.48-1 239.48-15.35Q239.48-17.55 238.76-19.38 238.03-21.2 236.51-22.28 234.98-23.35 232.53-23.35L232.53-23.35Q230.38-23.35 228.33-22.28 226.28-21.2 224.96-19.38 223.63-17.55 223.63-15.35L223.63-15.35 223.63-1Q223.63-0.6 223.36-0.3 223.08 0 222.63 0L222.63 0Q222.18 0 221.91-0.3 221.63-0.6 221.63-1L221.63-1 221.63-15.6Q221.63-17.75 220.96-19.5 220.28-21.25 218.83-22.3 217.38-23.35 214.98-23.35L214.98-23.35Q212.88-23.35 210.91-22.3 208.93-21.25 207.63-19.5 206.33-17.75 206.33-15.6L206.33-15.6 206.33-1Q206.33-0.6 206.03-0.3 205.73 0 205.33 0L205.33 0Q204.88 0 204.61-0.3 204.33-0.6 204.33-1L204.33-1 204.33-23.95Q204.33-24.35 204.63-24.65 204.93-24.95 205.33-24.95L205.33-24.95Q205.78-24.95 206.06-24.65 206.33-24.35 206.33-23.95L206.33-23.95 206.33-18.5 204.83-15.95Q204.83-17.7 205.68-19.35 206.53-21 207.96-22.33 209.38-23.65 211.21-24.45 213.03-25.25 214.98-25.25ZM251.78-24.75L251.78-1Q251.78-0.6 251.48-0.3 251.18 0 250.78 0L250.78 0Q250.33 0 250.06-0.3 249.78-0.6 249.78-1L249.78-1 249.78-24.75Q249.78-25.15 250.08-25.45 250.38-25.75 250.78-25.75L250.78-25.75Q251.23-25.75 251.5-25.45 251.78-25.15 251.78-24.75L251.78-24.75ZM250.78-29.15L250.78-29.15Q249.98-29.15 249.5-29.6 249.03-30.05 249.03-30.75L249.03-30.75 249.03-31.15Q249.03-31.85 249.53-32.3 250.03-32.75 250.83-32.75L250.83-32.75Q251.53-32.75 252-32.3 252.48-31.85 252.48-31.15L252.48-31.15 252.48-30.75Q252.48-30.05 252-29.6 251.53-29.15 250.78-29.15ZM271.43-25.75L271.43-25.75Q274.58-25.75 276.55-24.5 278.53-23.25 279.45-21.1 280.38-18.95 280.38-16.3L280.38-16.3 280.38-1Q280.38-0.6 280.08-0.3 279.78 0 279.38 0L279.38 0Q278.93 0 278.65-0.3 278.38-0.6 278.38-1L278.38-1 278.38-16.1Q278.38-18.25 277.65-20 276.93-21.75 275.35-22.8 273.78-23.85 271.23-23.85L271.23-23.85Q269.03-23.85 266.93-22.8 264.83-21.75 263.45-20 262.08-18.25 262.08-16.1L262.08-16.1 262.08-1Q262.08-0.6 261.78-0.3 261.48 0 261.08 0L261.08 0Q260.63 0 260.35-0.3 260.08-0.6 260.08-1L260.08-1 260.08-23.95Q260.08-24.35 260.38-24.65 260.68-24.95 261.08-24.95L261.08-24.95Q261.53-24.95 261.8-24.65 262.08-24.35 262.08-23.95L262.08-23.95 262.08-19.05 260.83-16.65Q260.83-18.45 261.78-20.1 262.73-21.75 264.28-23.03 265.83-24.3 267.7-25.03 269.58-25.75 271.43-25.75ZM299.03-25.75L299.03-25.75Q301.28-25.75 303.23-24.95 305.18-24.15 306.65-22.85 308.13-21.55 308.95-20.05 309.78-18.55 309.78-17.1L309.78-17.1 309.13-18.95 309.13-23.95Q309.13-24.35 309.4-24.65 309.68-24.95 310.13-24.95L310.13-24.95Q310.58-24.95 310.85-24.65 311.13-24.35 311.13-23.95L311.13-23.95 311.13-2.45Q311.13 1.4 309.55 4.2 307.98 7 305.23 8.5 302.48 10 298.83 10L298.83 10Q296.83 10 294.8 9.47 292.78 8.95 291.43 8.15 290.08 7.35 290.08 6.45L290.08 6.45Q290.08 6.05 290.3 5.8 290.53 5.55 290.93 5.55L290.93 5.55Q291.43 5.55 291.85 6.1 292.28 6.65 293.38 7.1L293.38 7.1Q293.83 7.25 294.6 7.5 295.38 7.75 296.48 7.93 297.58 8.1 298.93 8.1L298.93 8.1Q303.68 8.1 306.4 5.18 309.13 2.25 309.13-2.45L309.13-2.45 309.13-7.4 309.63-7.35Q309.03-5.2 307.88-3.7 306.73-2.2 305.25-1.28 303.78-0.35 302.15 0.08 300.53 0.5 299.03 0.5L299.03 0.5Q295.58 0.5 292.85-1.23 290.13-2.95 288.53-5.93 286.93-8.9 286.93-12.65L286.93-12.65Q286.93-16.4 288.53-19.38 290.13-22.35 292.85-24.05 295.58-25.75 299.03-25.75ZM299.13-23.85L299.13-23.85Q296.23-23.85 293.9-22.4 291.58-20.95 290.25-18.43 288.93-15.9 288.93-12.65L288.93-12.65Q288.93-9.45 290.25-6.9 291.58-4.35 293.9-2.88 296.23-1.4 299.13-1.4L299.13-1.4Q302.03-1.4 304.33-2.83 306.63-4.25 307.98-6.78 309.33-9.3 309.33-12.65L309.33-12.65Q309.33-16 307.98-18.53 306.63-21.05 304.33-22.45 302.03-23.85 299.13-23.85ZM343.27-25.75L343.27-25.75Q345.52-25.75 347.47-24.95 349.42-24.15 350.9-22.85 352.37-21.55 353.2-20.05 354.02-18.55 354.02-17.1L354.02-17.1 353.37-18.95 353.37-23.95Q353.37-24.35 353.65-24.65 353.92-24.95 354.37-24.95L354.37-24.95Q354.82-24.95 355.1-24.65 355.37-24.35 355.37-23.95L355.37-23.95 355.37-2.45Q355.37 1.4 353.8 4.2 352.22 7 349.47 8.5 346.72 10 343.07 10L343.07 10Q341.07 10 339.05 9.47 337.02 8.95 335.67 8.15 334.32 7.35 334.32 6.45L334.32 6.45Q334.32 6.05 334.55 5.8 334.77 5.55 335.17 5.55L335.17 5.55Q335.67 5.55 336.1 6.1 336.52 6.65 337.62 7.1L337.62 7.1Q338.07 7.25 338.85 7.5 339.62 7.75 340.72 7.93 341.82 8.1 343.17 8.1L343.17 8.1Q347.92 8.1 350.65 5.18 353.37 2.25 353.37-2.45L353.37-2.45 353.37-7.4 353.87-7.35Q353.27-5.2 352.12-3.7 350.97-2.2 349.5-1.28 348.02-0.35 346.4 0.08 344.77 0.5 343.27 0.5L343.27 0.5Q339.82 0.5 337.1-1.23 334.37-2.95 332.77-5.93 331.17-8.9 331.17-12.65L331.17-12.65Q331.17-16.4 332.77-19.38 334.37-22.35 337.1-24.05 339.82-25.75 343.27-25.75ZM343.37-23.85L343.37-23.85Q340.47-23.85 338.15-22.4 335.82-20.95 334.5-18.43 333.17-15.9 333.17-12.65L333.17-12.65Q333.17-9.45 334.5-6.9 335.82-4.35 338.15-2.88 340.47-1.4 343.37-1.4L343.37-1.4Q346.27-1.4 348.57-2.83 350.87-4.25 352.22-6.78 353.57-9.3 353.57-12.65L353.57-12.65Q353.57-16 352.22-18.53 350.87-21.05 348.57-22.45 346.27-23.85 343.37-23.85ZM365.67-24.75L365.67-1Q365.67-0.6 365.37-0.3 365.07 0 364.67 0L364.67 0Q364.22 0 363.94-0.3 363.67-0.6 363.67-1L363.67-1 363.67-24.75Q363.67-25.15 363.97-25.45 364.27-25.75 364.67-25.75L364.67-25.75Q365.12-25.75 365.39-25.45 365.67-25.15 365.67-24.75L365.67-24.75ZM364.67-29.15L364.67-29.15Q363.87-29.15 363.39-29.6 362.92-30.05 362.92-30.75L362.92-30.75 362.92-31.15Q362.92-31.85 363.42-32.3 363.92-32.75 364.72-32.75L364.72-32.75Q365.42-32.75 365.89-32.3 366.37-31.85 366.37-31.15L366.37-31.15 366.37-30.75Q366.37-30.05 365.89-29.6 365.42-29.15 364.67-29.15ZM372.77-25.85L372.77-25.85Q373.02-25.85 373.29-25.68 373.57-25.5 373.67-25.2L373.67-25.2 382.92-3.05 382.42-2.7 391.82-25.2Q392.07-25.85 392.87-25.85L392.87-25.85Q393.12-25.85 393.47-25.65 393.82-25.45 393.82-25.05L393.82-25.05Q393.82-24.8 393.77-24.68 393.72-24.55 393.67-24.45L393.67-24.45 383.72-0.65Q383.47 0 382.77 0L382.77 0Q382.47 0 382.19-0.18 381.92-0.35 381.82-0.65L381.82-0.65 371.82-24.4Q371.77-24.5 371.74-24.63 371.72-24.75 371.72-24.85L371.72-24.85Q371.72-25.25 371.97-25.55 372.22-25.85 372.77-25.85ZM410.66 0.5L410.66 0.5Q406.91 0.5 404.04-1.1 401.16-2.7 399.51-5.63 397.86-8.55 397.86-12.5L397.86-12.5Q397.86-16.7 399.49-19.65 401.11-22.6 403.69-24.18 406.26-25.75 409.16-25.75L409.16-25.75Q411.26-25.75 413.26-25.08 415.26-24.4 416.84-22.98 418.41-21.55 419.39-19.43 420.36-17.3 420.46-14.35L420.46-14.35Q420.46-13.95 420.16-13.63 419.86-13.3 419.46-13.3L419.46-13.3 399.06-13.3 398.76-15.2 418.91-15.2 418.41-14.75 418.41-15.65Q418.16-18.3 416.74-20.1 415.31-21.9 413.31-22.83 411.31-23.75 409.16-23.75L409.16-23.75Q407.66-23.75 406.01-23.08 404.36-22.4 402.96-21.03 401.56-19.65 400.69-17.55 399.81-15.45 399.81-12.65L399.81-12.65Q399.81-9.6 401.04-7.05 402.26-4.5 404.69-2.95 407.11-1.4 410.66-1.4L410.66-1.4Q412.36-1.4 413.86-1.98 415.36-2.55 416.56-3.5 417.76-4.45 418.51-5.55L418.51-5.55Q418.91-6 419.36-6L419.36-6Q419.71-6 419.96-5.73 420.21-5.45 420.21-5.1L420.21-5.1Q420.21-4.75 420.01-4.5L420.01-4.5Q418.46-2.5 416.04-1 413.61 0.5 410.66 0.5ZM425.61-4L425.61-4Q425.26-4.6 425.29-4.98 425.31-5.35 425.66-5.6L425.66-5.6Q425.91-5.85 426.34-5.83 426.76-5.8 427.06-5.45L427.06-5.45Q428.36-3.6 430.38-2.45 432.41-1.3 435.16-1.3L435.16-1.3Q436.81-1.3 438.34-1.85 439.86-2.4 440.84-3.5 441.81-4.6 441.81-6.2L441.81-6.2Q441.81-7.9 440.86-8.93 439.91-9.95 438.41-10.55 436.91-11.15 435.26-11.55L435.26-11.55Q433.51-12 431.94-12.58 430.36-13.15 429.16-14.03 427.96-14.9 427.26-16.1 426.56-17.3 426.56-18.95L426.56-18.95Q426.56-20.9 427.61-22.45 428.66-24 430.56-24.88 432.46-25.75 434.96-25.75L434.96-25.75Q436.16-25.75 437.51-25.45 438.86-25.15 440.21-24.43 441.56-23.7 442.71-22.4L442.71-22.4Q443.11-22.1 443.09-21.68 443.06-21.25 442.71-20.9L442.71-20.9Q442.41-20.7 442.06-20.7 441.71-20.7 441.46-21L441.46-21Q440.16-22.45 438.44-23.15 436.71-23.85 434.76-23.85L434.76-23.85Q433.11-23.85 431.69-23.3 430.26-22.75 429.36-21.68 428.46-20.6 428.46-18.95L428.46-18.95Q428.56-17.4 429.54-16.4 430.51-15.4 432.13-14.75 433.76-14.1 435.81-13.55L435.81-13.55Q437.46-13.15 438.88-12.63 440.31-12.1 441.38-11.3 442.46-10.5 443.09-9.3 443.71-8.1 443.71-6.3L443.71-6.3Q443.71-4.2 442.59-2.68 441.46-1.15 439.49-0.33 437.51 0.5 434.96 0.5L434.96 0.5Q432.36 0.5 429.96-0.55 427.56-1.6 425.61-4ZM475.36-25.25L475.36-25.25Q478.71-25.25 481.31-23.6 483.91-21.95 485.43-19.07 486.96-16.2 486.96-12.5L486.96-12.5Q486.96-8.85 485.43-5.95 483.91-3.05 481.28-1.38 478.66 0.3 475.36 0.3L475.36 0.3Q473.71 0.3 472.18-0.18 470.66-0.65 469.36-1.53 468.06-2.4 466.98-3.7 465.91-5 465.11-6.65L465.11-6.65 465.75-7.35 465.75 9Q465.75 9.4 465.48 9.7 465.21 10 464.75 10L464.75 10Q464.36 10 464.06 9.7 463.75 9.4 463.75 9L463.75 9 463.75-24.25Q463.75-24.65 464.03-24.95 464.31-25.25 464.75-25.25L464.75-25.25Q465.21-25.25 465.48-24.95 465.75-24.65 465.75-24.25L465.75-24.25 465.75-17.85 465.11-18.2Q465.81-20.05 466.86-21.4 467.91-22.75 469.25-23.6 470.61-24.45 472.16-24.85 473.71-25.25 475.36-25.25ZM475.25-23.35L475.25-23.35Q472.41-23.35 470.23-21.95 468.06-20.55 466.81-18.13 465.56-15.7 465.56-12.5L465.56-12.5Q465.56-9.35 466.81-6.88 468.06-4.4 470.23-3 472.41-1.6 475.25-1.6L475.25-1.6Q478.06-1.6 480.23-3 482.41-4.4 483.68-6.88 484.96-9.35 484.96-12.5L484.96-12.5Q484.96-15.65 483.68-18.1 482.41-20.55 480.23-21.95 478.06-23.35 475.25-23.35ZM495.75-36L495.75-1Q495.75-0.6 495.45-0.3 495.15 0 494.75 0L494.75 0Q494.3 0 494.03-0.3 493.75-0.6 493.75-1L493.75-1 493.75-36Q493.75-36.4 494.05-36.7 494.35-37 494.75-37L494.75-37Q495.2-37 495.48-36.7 495.75-36.4 495.75-36L495.75-36ZM514.85 0.5L514.85 0.5Q511.1 0.5 508.23-1.1 505.35-2.7 503.7-5.63 502.05-8.55 502.05-12.5L502.05-12.5Q502.05-16.7 503.68-19.65 505.3-22.6 507.88-24.18 510.45-25.75 513.35-25.75L513.35-25.75Q515.45-25.75 517.45-25.08 519.45-24.4 521.03-22.98 522.6-21.55 523.58-19.43 524.55-17.3 524.65-14.35L524.65-14.35Q524.65-13.95 524.35-13.63 524.05-13.3 523.65-13.3L523.65-13.3 503.25-13.3 502.95-15.2 523.1-15.2 522.6-14.75 522.6-15.65Q522.35-18.3 520.93-20.1 519.5-21.9 517.5-22.83 515.5-23.75 513.35-23.75L513.35-23.75Q511.85-23.75 510.2-23.08 508.55-22.4 507.15-21.03 505.75-19.65 504.88-17.55 504-15.45 504-12.65L504-12.65Q504-9.6 505.23-7.05 506.45-4.5 508.88-2.95 511.3-1.4 514.85-1.4L514.85-1.4Q516.55-1.4 518.05-1.98 519.55-2.55 520.75-3.5 521.95-4.45 522.7-5.55L522.7-5.55Q523.1-6 523.55-6L523.55-6Q523.9-6 524.15-5.73 524.4-5.45 524.4-5.1L524.4-5.1Q524.4-4.75 524.2-4.5L524.2-4.5Q522.65-2.5 520.23-1 517.8 0.5 514.85 0.5ZM551.85-24.95L551.85-24.95Q552.3-24.95 552.57-24.65 552.85-24.35 552.85-23.95L552.85-23.95 552.85-1Q552.85-0.6 552.55-0.3 552.25 0 551.85 0L551.85 0Q551.4 0 551.12-0.3 550.85-0.6 550.85-1L550.85-1 550.85-8.1 551.65-8.75Q551.65-7.15 550.85-5.5 550.05-3.85 548.65-2.5 547.25-1.15 545.35-0.33 543.45 0.5 541.25 0.5L541.25 0.5Q537.9 0.5 535.27-1.25 532.65-3 531.15-6 529.65-9 529.65-12.75L529.65-12.75Q529.65-16.55 531.17-19.48 532.7-22.4 535.32-24.08 537.95-25.75 541.25-25.75L541.25-25.75Q543.4-25.75 545.3-24.98 547.2-24.2 548.62-22.8 550.05-21.4 550.85-19.53 551.65-17.65 551.65-15.45L551.65-15.45 550.85-16.7 550.85-23.95Q550.85-24.35 551.12-24.65 551.4-24.95 551.85-24.95ZM541.35-1.4L541.35-1.4Q544.15-1.4 546.35-2.88 548.55-4.35 549.8-6.93 551.05-9.5 551.05-12.75L551.05-12.75Q551.05-15.85 549.8-18.38 548.55-20.9 546.35-22.38 544.15-23.85 541.35-23.85L541.35-23.85Q538.6-23.85 536.4-22.43 534.2-21 532.92-18.5 531.65-16 531.65-12.75L531.65-12.75Q531.65-9.5 532.9-6.93 534.15-4.35 536.35-2.88 538.55-1.4 541.35-1.4ZM559.75-4L559.75-4Q559.39-4.6 559.42-4.98 559.45-5.35 559.79-5.6L559.79-5.6Q560.04-5.85 560.47-5.83 560.89-5.8 561.2-5.45L561.2-5.45Q562.5-3.6 564.52-2.45 566.54-1.3 569.29-1.3L569.29-1.3Q570.95-1.3 572.47-1.85 574-2.4 574.97-3.5 575.95-4.6 575.95-6.2L575.95-6.2Q575.95-7.9 575-8.93 574.04-9.95 572.54-10.55 571.04-11.15 569.39-11.55L569.39-11.55Q567.64-12 566.07-12.58 564.5-13.15 563.29-14.03 562.1-14.9 561.39-16.1 560.7-17.3 560.7-18.95L560.7-18.95Q560.7-20.9 561.75-22.45 562.79-24 564.7-24.88 566.6-25.75 569.1-25.75L569.1-25.75Q570.29-25.75 571.64-25.45 573-25.15 574.35-24.43 575.7-23.7 576.85-22.4L576.85-22.4Q577.25-22.1 577.22-21.68 577.2-21.25 576.85-20.9L576.85-20.9Q576.54-20.7 576.2-20.7 575.85-20.7 575.6-21L575.6-21Q574.29-22.45 572.57-23.15 570.85-23.85 568.89-23.85L568.89-23.85Q567.25-23.85 565.82-23.3 564.39-22.75 563.5-21.68 562.6-20.6 562.6-18.95L562.6-18.95Q562.7-17.4 563.67-16.4 564.64-15.4 566.27-14.75 567.89-14.1 569.95-13.55L569.95-13.55Q571.6-13.15 573.02-12.63 574.45-12.1 575.52-11.3 576.6-10.5 577.22-9.3 577.85-8.1 577.85-6.3L577.85-6.3Q577.85-4.2 576.72-2.68 575.6-1.15 573.62-0.33 571.64 0.5 569.1 0.5L569.1 0.5Q566.5 0.5 564.1-0.55 561.7-1.6 559.75-4ZM603.24-24.95L603.24-24.95Q603.69-24.95 603.97-24.65 604.24-24.35 604.24-23.95L604.24-23.95 604.24-9.4Q604.24-4.55 601.52-2.13 598.79 0.3 594.29 0.3L594.29 0.3Q589.84 0.3 587.12-2.13 584.39-4.55 584.39-9.4L584.39-9.4 584.39-23.95Q584.39-24.35 584.69-24.65 584.99-24.95 585.39-24.95L585.39-24.95Q585.84-24.95 586.12-24.65 586.39-24.35 586.39-23.95L586.39-23.95 586.39-9.4Q586.39-5.6 588.52-3.6 590.64-1.6 594.29-1.6L594.29-1.6Q597.99-1.6 600.12-3.6 602.24-5.6 602.24-9.4L602.24-9.4 602.24-23.95Q602.24-24.35 602.52-24.65 602.79-24.95 603.24-24.95ZM613.54 0L613.54 0Q613.09 0 612.81-0.3 612.54-0.6 612.54-1L612.54-1 612.54-23.95Q612.54-24.35 612.84-24.65 613.14-24.95 613.54-24.95L613.54-24.95Q613.99-24.95 614.26-24.65 614.54-24.35 614.54-23.95L614.54-23.95 614.54-15.5 613.69-14.2Q613.69-16.15 614.36-18.15 615.04-20.15 616.34-21.88 617.64-23.6 619.51-24.68 621.39-25.75 623.84-25.75L623.84-25.75Q624.54-25.75 625.34-25.55 626.14-25.35 626.14-24.6L626.14-24.6Q626.14-24.15 625.89-23.85 625.64-23.55 625.24-23.55L625.24-23.55Q624.94-23.55 624.51-23.78 624.09-24 623.29-24L623.29-24Q621.69-24 620.14-23.05 618.59-22.1 617.31-20.53 616.04-18.95 615.29-17.1 614.54-15.25 614.54-13.5L614.54-13.5 614.54-1Q614.54-0.6 614.24-0.3 613.94 0 613.54 0ZM640.89 0.5L640.89 0.5Q637.14 0.5 634.26-1.1 631.39-2.7 629.74-5.63 628.09-8.55 628.09-12.5L628.09-12.5Q628.09-16.7 629.71-19.65 631.34-22.6 633.91-24.18 636.49-25.75 639.39-25.75L639.39-25.75Q641.49-25.75 643.49-25.08 645.49-24.4 647.06-22.98 648.64-21.55 649.61-19.43 650.59-17.3 650.69-14.35L650.69-14.35Q650.69-13.95 650.39-13.63 650.09-13.3 649.69-13.3L649.69-13.3 629.29-13.3 628.99-15.2 649.14-15.2 648.64-14.75 648.64-15.65Q648.39-18.3 646.96-20.1 645.54-21.9 643.54-22.83 641.54-23.75 639.39-23.75L639.39-23.75Q637.89-23.75 636.24-23.08 634.59-22.4 633.19-21.03 631.79-19.65 630.91-17.55 630.04-15.45 630.04-12.65L630.04-12.65Q630.04-9.6 631.26-7.05 632.49-4.5 634.91-2.95 637.34-1.4 640.89-1.4L640.89-1.4Q642.59-1.4 644.09-1.98 645.59-2.55 646.79-3.5 647.99-4.45 648.74-5.55L648.74-5.55Q649.14-6 649.59-6L649.59-6Q649.94-6 650.19-5.73 650.44-5.45 650.44-5.1L650.44-5.1Q650.44-4.75 650.24-4.5L650.24-4.5Q648.69-2.5 646.26-1 643.84 0.5 640.89 0.5ZM668.43-25.15L668.43-25.15 680.03-25.15Q680.43-25.15 680.71-24.85 680.98-24.55 680.98-24.2L680.98-24.2Q680.98-23.8 680.71-23.53 680.43-23.25 680.03-23.25L680.03-23.25 668.43-23.25Q668.08-23.25 667.78-23.55 667.48-23.85 667.48-24.2L667.48-24.2Q667.48-24.6 667.78-24.88 668.08-25.15 668.43-25.15ZM673.53-32.5L673.53-32.5Q673.98-32.5 674.26-32.2 674.53-31.9 674.53-31.5L674.53-31.5 674.53-5.45Q674.53-3.8 674.96-3.03 675.38-2.25 676.03-2.02 676.68-1.8 677.28-1.8L677.28-1.8Q677.63-1.8 677.88-1.9 678.13-2 678.48-2L678.48-2Q678.83-2 679.08-1.73 679.33-1.45 679.33-1.1L679.33-1.1Q679.33-0.65 678.76-0.33 678.18 0 677.33 0L677.33 0Q677.03 0 676.26-0.03 675.48-0.05 674.61-0.48 673.73-0.9 673.13-2.02 672.53-3.15 672.53-5.35L672.53-5.35 672.53-31.5Q672.53-31.9 672.83-32.2 673.13-32.5 673.53-32.5ZM709.18-12.6L709.18-12.6Q709.18-8.9 707.58-5.93 705.98-2.95 703.2-1.23 700.43 0.5 696.88 0.5L696.88 0.5Q693.38 0.5 690.58-1.23 687.78-2.95 686.15-5.93 684.53-8.9 684.53-12.6L684.53-12.6Q684.53-16.35 686.15-19.33 687.78-22.3 690.58-24.03 693.38-25.75 696.88-25.75L696.88-25.75Q700.43-25.75 703.2-24.03 705.98-22.3 707.58-19.33 709.18-16.35 709.18-12.6ZM707.18-12.6L707.18-12.6Q707.18-15.85 705.85-18.38 704.53-20.9 702.2-22.38 699.88-23.85 696.88-23.85L696.88-23.85Q693.93-23.85 691.58-22.38 689.23-20.9 687.88-18.38 686.53-15.85 686.53-12.6L686.53-12.6Q686.53-9.4 687.88-6.88 689.23-4.35 691.58-2.88 693.93-1.4 696.88-1.4L696.88-1.4Q699.88-1.4 702.2-2.88 704.53-4.35 705.85-6.88 707.18-9.4 707.18-12.6ZM740.07-25.75L740.07-25.75Q742.32-25.75 744.3-25.25 746.27-24.75 747.5-23.93 748.72-23.1 748.72-22.2L748.72-22.2Q748.72-21.85 748.45-21.53 748.17-21.2 747.77-21.2L747.77-21.2Q747.22-21.2 746.9-21.5 746.57-21.8 746.22-22.23 745.87-22.65 745.12-23L745.12-23Q744.42-23.35 743.15-23.6 741.87-23.85 740.02-23.85L740.02-23.85Q737.12-23.85 734.72-22.35 732.32-20.85 730.9-18.32 729.47-15.8 729.47-12.65L729.47-12.65Q729.47-9.45 730.8-6.9 732.12-4.35 734.5-2.88 736.87-1.4 740.02-1.4L740.02-1.4Q742.27-1.4 743.45-1.83 744.62-2.25 745.47-2.75L745.47-2.75Q746.52-3.35 746.92-3.9 747.32-4.45 747.87-4.45L747.87-4.45Q748.27-4.45 748.5-4.2 748.72-3.95 748.72-3.55L748.72-3.55Q748.72-2.95 747.62-1.98 746.52-1 744.55-0.25 742.57 0.5 739.87 0.5L739.87 0.5Q736.22 0.5 733.42-1.23 730.62-2.95 729.05-5.93 727.47-8.9 727.47-12.65L727.47-12.65Q727.47-16.15 729.05-19.13 730.62-22.1 733.45-23.93 736.27-25.75 740.07-25.75ZM755.87 0L755.87 0Q755.42 0 755.15-0.3 754.87-0.6 754.87-1L754.87-1 754.87-23.95Q754.87-24.35 755.17-24.65 755.47-24.95 755.87-24.95L755.87-24.95Q756.32-24.95 756.6-24.65 756.87-24.35 756.87-23.95L756.87-23.95 756.87-15.5 756.02-14.2Q756.02-16.15 756.7-18.15 757.37-20.15 758.67-21.88 759.97-23.6 761.85-24.68 763.72-25.75 766.17-25.75L766.17-25.75Q766.87-25.75 767.67-25.55 768.47-25.35 768.47-24.6L768.47-24.6Q768.47-24.15 768.22-23.85 767.97-23.55 767.57-23.55L767.57-23.55Q767.27-23.55 766.85-23.78 766.42-24 765.62-24L765.62-24Q764.02-24 762.47-23.05 760.92-22.1 759.65-20.53 758.37-18.95 757.62-17.1 756.87-15.25 756.87-13.5L756.87-13.5 756.87-1Q756.87-0.6 756.57-0.3 756.27 0 755.87 0ZM783.22 0.5L783.22 0.5Q779.47 0.5 776.59-1.1 773.72-2.7 772.07-5.63 770.42-8.55 770.42-12.5L770.42-12.5Q770.42-16.7 772.04-19.65 773.67-22.6 776.24-24.18 778.82-25.75 781.72-25.75L781.72-25.75Q783.82-25.75 785.82-25.08 787.82-24.4 789.39-22.98 790.97-21.55 791.94-19.43 792.92-17.3 793.02-14.35L793.02-14.35Q793.02-13.95 792.72-13.63 792.42-13.3 792.02-13.3L792.02-13.3 771.62-13.3 771.32-15.2 791.47-15.2 790.97-14.75 790.97-15.65Q790.72-18.3 789.29-20.1 787.87-21.9 785.87-22.83 783.87-23.75 781.72-23.75L781.72-23.75Q780.22-23.75 778.57-23.08 776.92-22.4 775.52-21.03 774.12-19.65 773.24-17.55 772.37-15.45 772.37-12.65L772.37-12.65Q772.37-9.6 773.59-7.05 774.82-4.5 777.24-2.95 779.67-1.4 783.22-1.4L783.22-1.4Q784.92-1.4 786.42-1.98 787.92-2.55 789.12-3.5 790.32-4.45 791.07-5.55L791.07-5.55Q791.47-6 791.92-6L791.92-6Q792.27-6 792.52-5.73 792.77-5.45 792.77-5.1L792.77-5.1Q792.77-4.75 792.57-4.5L792.57-4.5Q791.02-2.5 788.59-1 786.17 0.5 783.22 0.5ZM820.22-24.95L820.22-24.95Q820.67-24.95 820.94-24.65 821.22-24.35 821.22-23.95L821.22-23.95 821.22-1Q821.22-0.6 820.92-0.3 820.62 0 820.22 0L820.22 0Q819.77 0 819.49-0.3 819.22-0.6 819.22-1L819.22-1 819.22-8.1 820.02-8.75Q820.02-7.15 819.22-5.5 818.42-3.85 817.02-2.5 815.62-1.15 813.72-0.33 811.82 0.5 809.62 0.5L809.62 0.5Q806.27 0.5 803.64-1.25 801.02-3 799.52-6 798.02-9 798.02-12.75L798.02-12.75Q798.02-16.55 799.54-19.48 801.07-22.4 803.69-24.08 806.32-25.75 809.62-25.75L809.62-25.75Q811.77-25.75 813.67-24.98 815.57-24.2 816.99-22.8 818.42-21.4 819.22-19.53 820.02-17.65 820.02-15.45L820.02-15.45 819.22-16.7 819.22-23.95Q819.22-24.35 819.49-24.65 819.77-24.95 820.22-24.95ZM809.72-1.4L809.72-1.4Q812.52-1.4 814.72-2.88 816.92-4.35 818.17-6.93 819.42-9.5 819.42-12.75L819.42-12.75Q819.42-15.85 818.17-18.38 816.92-20.9 814.72-22.38 812.52-23.85 809.72-23.85L809.72-23.85Q806.97-23.85 804.77-22.43 802.57-21 801.29-18.5 800.02-16 800.02-12.75L800.02-12.75Q800.02-9.5 801.27-6.93 802.52-4.35 804.72-2.88 806.92-1.4 809.72-1.4ZM827.21-25.15L827.21-25.15 838.81-25.15Q839.21-25.15 839.49-24.85 839.76-24.55 839.76-24.2L839.76-24.2Q839.76-23.8 839.49-23.53 839.21-23.25 838.81-23.25L838.81-23.25 827.21-23.25Q826.86-23.25 826.56-23.55 826.26-23.85 826.26-24.2L826.26-24.2Q826.26-24.6 826.56-24.88 826.86-25.15 827.21-25.15ZM832.31-32.5L832.31-32.5Q832.76-32.5 833.04-32.2 833.31-31.9 833.31-31.5L833.31-31.5 833.31-5.45Q833.31-3.8 833.74-3.03 834.16-2.25 834.81-2.02 835.46-1.8 836.06-1.8L836.06-1.8Q836.41-1.8 836.66-1.9 836.91-2 837.26-2L837.26-2Q837.61-2 837.86-1.73 838.11-1.45 838.11-1.1L838.11-1.1Q838.11-0.65 837.54-0.33 836.96 0 836.11 0L836.11 0Q835.81 0 835.04-0.03 834.26-0.05 833.39-0.48 832.51-0.9 831.91-2.02 831.31-3.15 831.31-5.35L831.31-5.35 831.31-31.5Q831.31-31.9 831.61-32.2 831.91-32.5 832.31-32.5ZM847.31-24.75L847.31-1Q847.31-0.6 847.01-0.3 846.71 0 846.31 0L846.31 0Q845.86 0 845.59-0.3 845.31-0.6 845.31-1L845.31-1 845.31-24.75Q845.31-25.15 845.61-25.45 845.91-25.75 846.31-25.75L846.31-25.75Q846.76-25.75 847.04-25.45 847.31-25.15 847.31-24.75L847.31-24.75ZM846.31-29.15L846.31-29.15Q845.51-29.15 845.04-29.6 844.56-30.05 844.56-30.75L844.56-30.75 844.56-31.15Q844.56-31.85 845.06-32.3 845.56-32.75 846.36-32.75L846.36-32.75Q847.06-32.75 847.54-32.3 848.01-31.85 848.01-31.15L848.01-31.15 848.01-30.75Q848.01-30.05 847.54-29.6 847.06-29.15 846.31-29.15ZM854.41-25.85L854.41-25.85Q854.66-25.85 854.93-25.68 855.21-25.5 855.31-25.2L855.31-25.2 864.56-3.05 864.06-2.7 873.46-25.2Q873.71-25.85 874.51-25.85L874.51-25.85Q874.76-25.85 875.11-25.65 875.46-25.45 875.46-25.05L875.46-25.05Q875.46-24.8 875.41-24.68 875.36-24.55 875.31-24.45L875.31-24.45 865.36-0.65Q865.11 0 864.41 0L864.41 0Q864.11 0 863.83-0.18 863.56-0.35 863.46-0.65L863.46-0.65 853.46-24.4Q853.41-24.5 853.38-24.63 853.36-24.75 853.36-24.85L853.36-24.85Q853.36-25.25 853.61-25.55 853.86-25.85 854.41-25.85ZM892.31 0.5L892.31 0.5Q888.56 0.5 885.68-1.1 882.81-2.7 881.16-5.63 879.51-8.55 879.51-12.5L879.51-12.5Q879.51-16.7 881.13-19.65 882.76-22.6 885.33-24.18 887.91-25.75 890.81-25.75L890.81-25.75Q892.91-25.75 894.91-25.08 896.91-24.4 898.48-22.98 900.06-21.55 901.03-19.43 902.01-17.3 902.11-14.35L902.11-14.35Q902.11-13.95 901.81-13.63 901.51-13.3 901.11-13.3L901.11-13.3 880.71-13.3 880.41-15.2 900.56-15.2 900.06-14.75 900.06-15.65Q899.81-18.3 898.38-20.1 896.96-21.9 894.96-22.83 892.96-23.75 890.81-23.75L890.81-23.75Q889.31-23.75 887.66-23.08 886.01-22.4 884.61-21.03 883.21-19.65 882.33-17.55 881.46-15.45 881.46-12.65L881.46-12.65Q881.46-9.6 882.68-7.05 883.91-4.5 886.33-2.95 888.76-1.4 892.31-1.4L892.31-1.4Q894.01-1.4 895.51-1.98 897.01-2.55 898.21-3.5 899.41-4.45 900.16-5.55L900.16-5.55Q900.56-6 901.01-6L901.01-6Q901.36-6 901.61-5.73 901.86-5.45 901.86-5.1L901.86-5.1Q901.86-4.75 901.66-4.5L901.66-4.5Q900.11-2.5 897.68-1 895.26 0.5 892.31 0.5ZM907.25-4L907.25-4Q906.9-4.6 906.93-4.98 906.95-5.35 907.3-5.6L907.3-5.6Q907.55-5.85 907.98-5.83 908.4-5.8 908.7-5.45L908.7-5.45Q910-3.6 912.03-2.45 914.05-1.3 916.8-1.3L916.8-1.3Q918.45-1.3 919.98-1.85 921.5-2.4 922.48-3.5 923.45-4.6 923.45-6.2L923.45-6.2Q923.45-7.9 922.5-8.93 921.55-9.95 920.05-10.55 918.55-11.15 916.9-11.55L916.9-11.55Q915.15-12 913.58-12.58 912-13.15 910.8-14.03 909.6-14.9 908.9-16.1 908.2-17.3 908.2-18.95L908.2-18.95Q908.2-20.9 909.25-22.45 910.3-24 912.2-24.88 914.1-25.75 916.6-25.75L916.6-25.75Q917.8-25.75 919.15-25.45 920.5-25.15 921.85-24.43 923.2-23.7 924.35-22.4L924.35-22.4Q924.75-22.1 924.73-21.68 924.7-21.25 924.35-20.9L924.35-20.9Q924.05-20.7 923.7-20.7 923.35-20.7 923.1-21L923.1-21Q921.8-22.45 920.08-23.15 918.35-23.85 916.4-23.85L916.4-23.85Q914.75-23.85 913.33-23.3 911.9-22.75 911-21.68 910.1-20.6 910.1-18.95L910.1-18.95Q910.2-17.4 911.18-16.4 912.15-15.4 913.78-14.75 915.4-14.1 917.45-13.55L917.45-13.55Q919.1-13.15 920.53-12.63 921.95-12.1 923.03-11.3 924.1-10.5 924.73-9.3 925.35-8.1 925.35-6.3L925.35-6.3Q925.35-4.2 924.23-2.68 923.1-1.15 921.13-0.33 919.15 0.5 916.6 0.5L916.6 0.5Q914 0.5 911.6-0.55 909.2-1.6 907.25-4Z" class="undefined-text-1" data-fill-palette-color="secondary" opacity="1" transform="matrix(1,0,0,1,0,0)"/></svg></g></svg></g></svg></g></svg></g><g transform="matrix(1,0,0,1,404.8838321027391,0)"><svg width="84.144" height="84.144" viewBox="0 0 84.144 84.144"><g><svg xmlns="http://www.w3.org/2000/svg" xmlns:xlink="http://www.w3.org/1999/xlink" id="icon-0" width="84.144" height="84.144" x="0" y="0" class="icon-icon-0" data-fill-palette-color="accent" enable-background="new 0 0 72 72" version="1.1" viewBox="0.5 0.5 71 71" xml:space="preserve"><g fill="#fff" data-fill-palette-color="accent"><g fill="#fff" data-fill-palette-color="accent"><path fill="#fff" d="M69.8 0.5H2.2c-0.9 0-1.7 0.8-1.7 1.7v67.6c0 0.9 0.8 1.7 1.7 1.7h67.6c0.9 0 1.7-0.8 1.7-1.7V2.2C71.5 1.3 70.7 0.5 69.8 0.5zM25 4.5c1.2 0 2.1 0.9 2.1 2.1 0 1.2-0.9 2.1-2.1 2.1-1.2 0-2.1-0.9-2.1-2.1C22.9 5.4 23.8 4.5 25 4.5zM16.1 4.5c1.2 0 2.1 0.9 2.1 2.1 0 1.2-0.9 2.1-2.1 2.1S14 7.8 14 6.6C14 5.4 15 4.5 16.1 4.5zM7.3 4.5c1.2 0 2.1 0.9 2.1 2.1 0 1.2-0.9 2.1-2.1 2.1S5.2 7.8 5.2 6.6C5.2 5.4 6.1 4.5 7.3 4.5zM66.5 64.8c0 0.9-0.8 1.7-1.7 1.7H7.2c-0.9 0-1.7-0.8-1.7-1.7V16.5c0-0.9 0.8-1.7 1.7-1.7h57.6c0.9 0 1.7 0.8 1.7 1.7V64.8z" data-fill-palette-color="accent"/></g><g fill="#fff" data-fill-palette-color="accent"><g fill="#fff" data-fill-palette-color="accent"><g fill="#fff" data-fill-palette-color="accent"><path fill="#fff" d="M50.2 51.4c-0.7 0-1.4-0.3-1.9-0.9-0.9-1-0.7-2.6 0.2-3.5l5.9-5.9c0.5-0.5 0.5-1.4 0-1.9l-5.9-5.9c-0.9-0.9-1.1-2.4-0.3-3.4 1-1.2 2.7-1.2 3.7-0.2l8.8 8.8c0.5 0.5 0.7 1.1 0.7 1.8 0 0.7-0.3 1.3-0.7 1.8L52 50.7C51.5 51.1 50.8 51.4 50.2 51.4z" data-fill-palette-color="accent"/></g><g fill="#fff" data-fill-palette-color="accent"><path fill="#fff" d="M21.8 51.4c-0.6 0-1.3-0.2-1.8-0.7l-8.8-8.8c-0.5-0.5-0.7-1.1-0.7-1.8 0-0.7 0.3-1.3 0.7-1.8l8.7-8.7c0.9-0.9 2.4-1.1 3.4-0.3 1.2 1 1.2 2.7 0.2 3.7l-6 6c-0.5 0.5-0.5 1.4 0 1.9l5.9 5.9c0.9 0.9 1.1 2.5 0.2 3.5C23.2 51.1 22.5 51.4 21.8 51.4z" data-fill-palette-color="accent"/></g></g><g fill="#fff" data-fill-palette-color="accent"><path fill="#fff" d="M30.7 57.4c-0.3 0-0.6 0-0.8-0.1-1.3-0.5-2-1.9-1.5-3.2l10.5-29.5c0.5-1.3 1.9-2 3.2-1.5 1.3 0.5 2 1.9 1.5 3.2L33.1 55.7C32.7 56.7 31.8 57.4 30.7 57.4z" data-fill-palette-color="accent"/></g></g></g></svg></g></svg></g></svg></g></svg><rect width="395.52" height="68.054" fill="none" stroke="none" visibility="hidden"/></g></svg></g></svg>